<?xml version="1.0" encoding="UTF-8"?>
<!DOCTYPE svg  PUBLIC '-//W3C//DTD SVG 1.1//EN'  'http://www.w3.org/Graphics/SVG/1.1/DTD/svg11.dtd'>
<svg enable-background="new 0 0 1432 1920" version="1.1" viewBox="0 0 1432 1920" xml:space="preserve" xmlns="http://www.w3.org/2000/svg">
<g stroke-width=".3">
	<path d="m699.46 475.71c9.0099-3.46 17.43-8.45 24.56-14.98 5 8.58 4.29 18.95 2.07 28.26 10.16-3.97 20.97-6.37 31.91-6.45 8.05-0.03 16.1 1.26 23.75 3.76 11.65 3.39 21.21 11.07 31.88 16.5 7.19 3.71 14.53 7.13 22.04 10.14 11.03 4.37 22.39 7.91 34.01 10.34 1.85 0.3799 3.69 0.75 5.56 1.15-2.59 4.89-6.66 8.78-11.25 11.78-2.8 1.7-5.78 3.05-8.78 4.32 1.71 1.0699 3.44 2.12 5.24 3.0699 7.62 3.78 16.33 5.78 24.81 4.21 6.73-1.3 12.71-4.82 18.14-8.88-5.41 11.87-13.71 23.1-25.81 28.74 9.49 4.64 18.28 11.16 24.18 20.06 1.78 2.69 3.25 5.57 4.64 8.49-2.91-0.85-5.8199-1.73-8.79-2.29-5.76-1-11.7-0.24-17.13 1.85 2.44 4.31 4.78 8.67 6.94 13.13 3.68 7.59 6.95 15.37 9.72 23.34 4.0699 11.78 7.04 23.95 8.67 36.32 1.14 8.8 1.74 17.7 1.58 26.58-0.13 7.61-0.72 15.21-1.63 22.76-3.3-1.55-6.9-2.25-10.49-2.67 1.27-32.08-8.54-63.7-24.05-91.51-3.56-6.14-6.65-13.27-13.18-16.83-5.2-2.95-11.68-1.35-16.33 1.92-5.12 3.73-11.23 5.61-17.11 7.75-14.54 4.91-29.8 7.86-45.14 8.46-4.6899-1.51-9.6299-0.92-14.45-1.03-2.56-0.12-5.08 0.29-7.51 1.02-30.56-1.35-60.44-9.31-89.22-19.34-4.78-1.53-8.79-4.65-13.26-6.84-11.09-5.73-23.42-9.64-36.01-9.29-8.43 0.2-16.79 2.38-24.28 6.23-5.76 3.0099-11.76 5.8799-16.35 10.6-6.71 6.45-10.56 15.27-12.6 24.23-1.1-3.51 0.2401-7.08 0.56-10.59 0.57-3.81 0.17-7.97 2.29-11.36 6.84-11.18 16.45-21.17 28.73-26.25 14.99-5.7 31.76-3.73 46.53 1.6801 8.72 2.8199 16.68 7.45 25.22 10.75 35.54 14.43 74.37 22.62 112.79 18.42 19.44-1.97 38.5-7.1 56.46-14.75 7.33-2.33 15.48-3.34 22.9-0.82 4.18 1.42 7.53 4.38 10.85 7.17-0.04-2.63 0.23-5.47-1.17-7.82-1.37-2.22-3.28-4.0099-5.01-5.92 8.33-1.92 16.77-3.48 25.33-3.81-4.68-3.61-10.33-5.57-15.69-7.9-12.97-5.54-26.9-8.47-40.91-9.75 1.97-4.54 7.12-5.98 11.26-7.85 5.04-2.31 10.76-3.11 15.34-6.37-17.37-4.03-34.98-7.22-51.97-12.76-4.13-1.35-8.13-3.19-11.49-5.98 0.92-0.7 1.68-1.71 2.84-2.06 12.34-2.62 25.07-2.36 37.53-0.76-5.91-4.04-12.5-6.9-18.82-10.21-39.35-19.24-83.44-30.51-127.42-27.04-23.74 1.48-46.91 7.71-69.05 16.19-0.24-8.43 7.79-12.95 14.15-16.55-17.1 0.15-34.76 4.61-48.29 15.47-7.6 5.73-13.75 13.19-18.65 21.32-3.68 5.71-4.22 13.01-8.8199 18.21-3.47 4.35-9.33 4.96-14.18 6.9-9.5 3.76-16.79 11.42-22 20.02 6.09-2.2 11.47-5.91 17.27-8.71 1.87-1.04 5.31-1.13 5.81 1.51 0.06 3.5-3.25 5.55-5.36 7.87-12.53 12.81-20.03 29.78-24.04 47.07-5.5601 24.9-5.26 50.95-0.42 75.95 2.78 14.49 7.19 28.76 13.81 41.97-5.76 1.66-10.85 5.23-14.68 9.8-2.69-7.64-4.28-15.6-6.2-23.44-0.24-0.2-0.71-0.61-0.95-0.81l0.98 0.6c-2.51-13.25-4.16-26.69-4.29-40.18-0.33-9.47 0.21-18.97 1.13-28.39 1.11-11.46 3.18-22.81 5.88-34-4.72 1.94-8.69 5.26-12.06 9.03-1.91-4.47-0.13-9.4901-2.01-13.95 0.28-5.64 1.4-11.21 2.92-16.64 2.45-9.07 6.51-17.66 11.64-25.51 6.8-10.27 15.4-19.29 25.04-26.94 1.2-1 2.39-2.02 3.59-3.03-2-0.45-4-0.88-5.96-1.4-7.77-2-13.56-8.66-14.88-16.52 2.66 1.69 5.34 3.4 8.3 4.54 8.9 2.92 18.46 0.64 26.84-2.86 0.8-0.36 1.59-0.72 2.39-1.08 4.4301-12.16 12.7-22.89 23.46-30.11 6.99-4.74 14.84-8.11 22.94-10.45 11.26-3.47 23.07-4.06 34.74-4.99 0.05-0.55 0.16-1.65 0.21-2.2 0.54 0.68 1.06 1.37 1.58 2.08 7.59-0.84 15.17-1.7 22.7-2.95 11.55-1.9098 23.03-4.5398 33.98-8.7398z" fill="#6A1D17" stroke="#6A1D17"/>
	<path d="m588.75 511.74c13.53-10.86 31.19-15.32 48.29-15.47-6.36 3.6-14.39 8.12-14.15 16.55 22.14-8.48 45.31-14.71 69.05-16.19 43.98-3.47 88.07 7.8 127.42 27.04 6.32 3.31 12.91 6.17 18.82 10.21-12.46-1.6-25.19-1.86-37.53 0.76-1.16 0.35-1.92 1.36-2.84 2.06 3.36 2.79 7.36 4.63 11.49 5.98 16.99 5.54 34.6 8.73 51.97 12.76-4.58 3.26-10.3 4.06-15.34 6.37-4.14 1.87-9.29 3.31-11.26 7.85 14.01 1.28 27.94 4.21 40.91 9.75 5.36 2.33 11.01 4.29 15.69 7.9-8.56 0.33-17 1.89-25.33 3.81 1.73 1.91 3.64 3.7 5.01 5.92 1.4 2.35 1.13 5.19 1.17 7.82-3.32-2.79-6.67-5.75-10.85-7.17-7.42-2.52-15.57-1.51-22.9 0.82-17.96 7.65-37.02 12.78-56.46 14.75-38.42 4.2-77.25-3.99-112.79-18.42-8.54-3.3-16.5-7.9301-25.22-10.75-14.77-5.41-31.54-7.38-46.53-1.6801-12.28 5.08-21.89 15.07-28.73 26.25-2.12 3.39-1.72 7.55-2.29 11.36-0.3199 3.51-1.66 7.08-0.56 10.59-0.85 5.4-1.93 10.9-0.74 16.34 2.7 17.12-0.67 35.7-11.49 49.55-1.8 2.46-4.35 4.51-5.29 7.51-4.32 13.48-5.84 28.14-2.44 42 2.81 11.92 9.1 22.77 17.04 32.01-2.53 1.58-4.95-0.6-6.87-2.06-4.71-4.01-9.28-8.34-12.39-13.75-0.27 0.15-0.81 0.47-1.08 0.62-0.75-1.92-1.47-3.85-2.1801-5.77-1.73-4.65-3.09-9.42-4.43-14.18-1.26 0.3-2.51 0.61-3.75 0.97-6.62-13.21-11.03-27.48-13.81-41.97-4.84-25-5.14-51.05 0.42-75.95 4.0099-17.29 11.51-34.26 24.04-47.07 2.11-2.32 5.42-4.37 5.36-7.87-0.5-2.64-3.94-2.55-5.81-1.51-5.8 2.8-11.18 6.51-17.27 8.71 5.21-8.6 12.5-16.26 22-20.02 4.85-1.94 10.71-2.55 14.18-6.9 4.6-5.2 5.14-12.5 8.8199-18.21 4.9001-8.1299 11.05-15.59 18.65-21.32m70.29 10.23c-16.33 1.67-31.83 8-45.9 16.23-2.92 1.8-6.05 3.37-8.48 5.85 1.6801-0.34 3.35-0.78 4.94-1.44 32.33-12.89 68.77-16.04 102.49-6.81 5.81 1.37 11.29 3.87 17.13 5.15-3.59-3.35-8.21-5.3-12.46-7.64-17.56-9.28-37.9-13.91-57.72-11.34z" fill="#843318" stroke="#843318"/>
	<path d="m659.04 521.97c19.82-2.5699 40.16 2.0601 57.72 11.34 4.25 2.34 8.87 4.29 12.46 7.64-5.84-1.28-11.32-3.78-17.13-5.15-33.72-9.23-70.16-6.08-102.49 6.81-1.59 0.66-3.2599 1.1-4.94 1.44 2.4301-2.48 5.56-4.05 8.48-5.85 14.07-8.23 29.57-14.56 45.9-16.23z" fill="#6A1D17" stroke="#6A1D17"/>
	<path d="m594.74 595.78c7.49-3.85 15.85-6.03 24.28-6.23 12.59-0.35 24.92 3.56 36.01 9.29 4.47 2.19 8.48 5.31 13.26 6.84 28.78 10.03 58.66 17.99 89.22 19.34 7.31 0.43 14.65 0.46 21.96 0.01 15.34-0.6 30.6-3.55 45.14-8.46 5.88-2.14 11.99-4.02 17.11-7.75 4.65-3.27 11.13-4.87 16.33-1.92 6.53 3.56 9.62 10.69 13.18 16.83 15.51 27.81 25.32 59.43 24.05 91.51 3.59 0.42 7.1899 1.12 10.49 2.67 3.65 1.75 6.98 4.15 9.77 7.1 4.64 4.99 7.68 11.46 8.4 18.25 1.25 10.23-3.08 21.09-11.56 27.11-7.87 5.95-18.71 6.41-27.73 3.01-2.12 7.22-4.67 14.29-7.2 21.37-3.08 6.35-5.66 12.93-9.06 19.13-4.24 8.17-9.11 16.01-14.49 23.48-3.6 4.88-7.41 9.61-11.44 14.15-5.06 5.47-10.37 10.73-16.04 15.59-3.72 2.9901-7.49 5.9301-11.42 8.65-4.71 3.45-9.9 6.15-14.72 9.44-1.46 0.47-2.86 1.11-4.23 1.8-5.67 3.09-11.74 5.29-17.65 7.85 0.11 3.11 0.1 6.22 0.16 9.33-0.3-3.09-0.44-6.19-0.43-9.29-21.58 7.41-44.57 10.3-67.32 8.86-18.63-1.69-37.09-5.72-54.46-12.75-4.87-1.91-9.63-4.07-14.31-6.39-2.27-1.13-4.5-2.31-6.71-3.52-6.51-3.34-12.39-7.72-18.71-11.35-5.57-4.8-11.66-8.95-17.01-14.01-4.89-3.93-8.72-9.06-13.71-12.81-5.5-7.59-12.01-14.43-17.06-22.37-3.77-5.45-7.17-11.15-10.36-16.95-0.91-2.29-3.49-2.72-5.47-3.63-10.39 5.94-24.49 4.66-33.08-3.85-3.9-3.29-5.86-8.03-8.34-12.32-2.02-9.5099-1.41-20.02 4.45-28.13 0.46-0.69 0.94-1.36 1.45-2.0099 3.83-4.57 8.92-8.14 14.68-9.8 1.24-0.36 2.49-0.67 3.75-0.97 1.34 4.76 2.7 9.53 4.43 14.18-6.37 0.4-12.74 4.02-14.87 10.29-3.39 7.72 0.48 17.78 8.48 20.75 6.2 2.66 13.29-0.18 17.41-5.14-1.18-2.51-2.41-4.9901-3.57-7.4901l1.03 0.46c5.16 2.84 10.63 5.61 16.71 5.33-0.89-1.11-1.78-2.17-2.67-3.24-7.94-9.24-14.23-20.09-17.04-32.01-3.4-13.86-1.88-28.52 2.44-42 0.94-3 3.49-5.05 5.29-7.51 10.82-13.85 14.19-32.43 11.49-49.55-1.19-5.44-0.11-10.94 0.74-16.34 2.04-8.96 5.89-17.78 12.6-24.23 4.5901-4.72 10.59-7.59 16.35-10.6m206.42 76.56c-7.05 2.27-11.38 9.09-13.65 15.77-1.07 2.24 2.55 4.63 3.84 2.2 2.64-5.06 5.75-10.56 11.43-12.64 5.7599-2.3 11.78 0.09 17.26 2.01 2.57 0.01 2.47-3.26 0.59-4.21-5.83-3.2-12.94-5.01-19.47-3.13m-162.93 11.08c-3.67 1.28-7.14 3.19-10.13 5.67-1.81 1.09-1.88 4.74 0.87 4.41 4.2-2.11 8.0601-5.39 12.99-5.58 6.14-0.79 11.76 2.99 15.35 7.67 1.1 1.12 1.92 2.87 3.62 3.17 2.03-0.08 2.74-2.83 1.52-4.25-3.4-5.29-8.14-10.44-14.54-11.79-3.2101-0.83-6.5801-0.28-9.6801 0.7m170.92 24.87c-5.32 2.76-7.76 9.04-7.87 14.76 0.05 4.44 1.75 9.54 6.09 11.5 4.13 1.75 8.54-1.04 10.8-4.45 3.71-5.52 4.51-13.46 0.72-19.13-2.03-3.15-6.39-4.49-9.74-2.68m-166.8 9.25c-3.8199 1.94-5.59 6.44-5.48 10.55-0.11 6.78 3.88 14.12 10.59 16.27 3.97 1.42 8.5099-0.9 10.24-4.62 3.16-6.41 1.03-14.56-3.91-19.48-2.87-2.95-7.54-4.66-11.44-2.72m246.97 12.71c-0.54 9.28-1.33 18.56-3.02 27.71 6.37 5.3 16.97 3.78 21.34-3.34 5.57-8 1.34-20.34-7.63-23.76-3.37-1.52-7.16-1.34-10.69-0.61m-148.69 14.44c0.06 1.48 0.48 2.96 1.89 3.7 5.43 3.89 10.89 8.28 13.83 14.44 1.62 3.37 1.11 7.49-1.02 10.52-3.04 4.42-7.91 7.08-12.66 9.31-1.29 0.7401-3.69 1.35-2.91 3.38 3.84 0.95 7.5-1.11 11.01-2.37 5.9-2.55 12.15-5.37 16.15-10.61 2.38-2.98 2.37-7.29 0.45-10.49-3.66-6.28-10.11-10.13-16.18-13.76-3.34-1.77-6.6-4.29-10.56-4.12m80.63 0.72c-4.43 0.9-8.92 2.36-12.36 5.41-1.9901 1.77-2.6801 4.68-1.87 7.2 1.4 2.56 3.98 4.24 6.65 5.27 9.88 3.46 21.08 3.2401 30.68-1.0099 2.45-1.32 5.29-2.7401 6.38-5.4901 1.33-2.79-0.18-6.38-2.79-7.81-7.92-4.91-17.78-4.83-26.69-3.57m-195.99 7.01c-4.88 0.71-9.7 2.22-13.85 4.94-2.42 1.64-4.13 4.71-3.36 7.68 1.65 3.33 5.26 5.15 8.64 6.32 9.25 2.61 19.48 2.4 28.38-1.36 3.5-1.45 7.07-4.02 7.67-8.03-0.64-3.87-4.32-6.42-7.73-7.79-6.31-2.15-13.16-2.66-19.75-1.76m171.82 48.4c-37.67 13.38-79.03 13.67-117.82 5.2-4.54-1.02-9.09-2-13.61-3.09 7.02 18.28 18.03 35.56 33.95 47.31 13.22 10.4 30.64 15.29 47.36 13.36 13.39-1.59 26.41-7.37 36.21-16.7 14.16-12.94 22.37-31.36 24.77-50.22-3.64 1.33-7.26 2.71-10.86 4.14z" fill="#FCC197" stroke="#FCC197"/>
	<path d="m499.97 622.51c1.88 4.46 0.1 9.48 2.01 13.95-0.75 0.83-1.5 1.66-2.23 2.5099-0.24-5.4899-0.35-10.99 0.22-16.46z" fill="#590503" stroke="#590503"/>
	<path d="m757.51 625.02c2.43-0.73 4.95-1.14 7.51-1.02 4.82 0.11 9.76-0.48 14.45 1.03-7.31 0.45-14.65 0.42-21.96-0.01z" fill="#550504" stroke="#550504"/>
	<path d="m801.16 672.34c6.53-1.88 13.64-0.07 19.47 3.1299 1.88 0.95 1.98 4.22-0.59 4.21-5.48-1.92-11.5-4.31-17.26-2.01-5.6801 2.08-8.79 7.58-11.43 12.64-1.29 2.43-4.91 0.04-3.84-2.2 2.27-6.6799 6.6-13.5 13.65-15.77z" fill="#6B1F18" stroke="#6B1F18"/>
	<path d="m638.23 683.42c3.1-0.98 6.47-1.53 9.68-0.7 6.4 1.35 11.14 6.5 14.54 11.79 1.22 1.42 0.51 4.17-1.52 4.25-1.7-0.3-2.52-2.05-3.62-3.17-3.59-4.6801-9.21-8.46-15.35-7.67-4.93 0.19-8.79 3.47-12.99 5.58-2.75 0.33-2.68-3.32-0.87-4.41 2.9901-2.48 6.4601-4.39 10.13-5.67z" fill="#6B1E18" stroke="#6B1E18"/>
	<path d="m809.15 708.29c3.35-1.81 7.71-0.47 9.74 2.68 3.79 5.67 2.99 13.61-0.72 19.13-2.26 3.41-6.67 6.2-10.8 4.45-4.34-1.96-6.04-7.06-6.09-11.5 0.11-5.72 2.55-12 7.87-14.76z" fill="#6A1F1C" stroke="#6A1F1C"/>
	<path d="m642.35 717.54c3.9-1.94 8.57-0.23 11.44 2.72 4.94 4.92 7.07 13.07 3.91 19.48-1.73 3.72-6.27 6.04-10.24 4.62-6.71-2.15-10.7-9.49-10.59-16.27-0.11-4.11 1.66-8.61 5.48-10.55z" fill="#6A1F1C" stroke="#6A1F1C"/>
	<path d="m889.32 730.25c3.53-0.73 7.32-0.91 10.69 0.61 8.97 3.42 13.2 15.76 7.63 23.76-4.37 7.12-14.97 8.64-21.34 3.34 1.69-9.15 2.48-18.43 3.02-27.71z" fill="#D39179" stroke="#D39179"/>
	<path d="m740.63 744.69c3.96-0.17 7.22 2.35 10.56 4.12 6.07 3.63 12.52 7.48 16.18 13.76 1.92 3.2 1.93 7.51-0.45 10.49-4 5.24-10.25 8.06-16.15 10.61-3.51 1.26-7.17 3.32-11.01 2.37-0.78-2.03 1.62-2.64 2.91-3.38 4.75-2.23 9.62-4.89 12.66-9.31 2.13-3.03 2.64-7.15 1.02-10.52-2.94-6.16-8.4-10.55-13.83-14.44-1.41-0.74-1.83-2.22-1.89-3.7z" fill="#D39179" stroke="#D39179"/>
	<path d="m821.26 745.41c8.91-1.2599 18.77-1.34 26.69 3.57 2.61 1.43 4.12 5.02 2.79 7.81-1.09 2.75-3.93 4.17-6.38 5.4901-9.6 4.25-20.8 4.47-30.68 1.0099-2.67-1.03-5.25-2.71-6.65-5.27-0.8101-2.52-0.1201-5.43 1.87-7.2 3.44-3.05 7.93-4.51 12.36-5.41z" fill="#FAA893" stroke="#FAA893"/>
	<path d="m625.27 752.42c6.59-0.9 13.44-0.39 19.75 1.76 3.41 1.37 7.09 3.92 7.73 7.79-0.6 4.01-4.17 6.58-7.67 8.03-8.9 3.76-19.13 3.97-28.38 1.36-3.38-1.17-6.99-2.99-8.64-6.32-0.77-2.97 0.94-6.04 3.36-7.68 4.15-2.72 8.97-4.23 13.85-4.94z" fill="#FAA893" stroke="#FAA893"/>
	<path d="m525.48 767.35c2.13-6.27 8.5-9.89 14.87-10.29 0.71 1.92 1.4301 3.85 2.1801 5.77 1.95 4.42 3.1899 9.29 6.3 13.1l-1.03-0.46c1.16 2.5 2.39 4.98 3.57 7.4901-4.12 4.96-11.21 7.8-17.41 5.14-8.0001-2.9701-11.87-13.03-8.4801-20.75z" fill="#D39179" stroke="#D39179"/>
	<path d="m542.53 762.83c0.27-0.15 0.81-0.47 1.08-0.62 3.11 5.41 7.68 9.74 12.39 13.75 1.92 1.46 4.34 3.64 6.87 2.06 0.89 1.07 1.78 2.13 2.67 3.24-6.08 0.28-11.55-2.49-16.71-5.33-3.11-3.81-4.35-8.68-6.3-13.1z" fill="#6C1F18" stroke="#6C1F18"/>
	<path d="m797.09 800.82c3.6-1.43 7.22-2.81 10.86-4.14-2.4 18.86-10.61 37.28-24.77 50.22-14.92-5.94-31.37-6.51-47.21-5.7401-12.44 1.08-25.34 2.8-36.36 9.08-15.92-11.75-26.93-29.03-33.95-47.31 4.52 1.09 9.07 2.07 13.61 3.09 2.16 12.28 13.55 20.07 24.73 23.51 23.89 7.1899 50.16 5.93 73.45-2.89 11.31-3.2999 18.81-14.35 19.64-25.82z" fill="#720E0E" stroke="#720E0E"/>
	<path d="m679.27 806.02c38.79 8.47 80.15 8.18 117.82-5.2-0.83 11.47-8.33 22.52-19.64 25.82-23.29 8.82-49.56 10.08-73.45 2.89-11.18-3.44-22.57-11.23-24.73-23.51z" fill="#F9FFFF" stroke="#F9FFFF"/>
	<path d="m699.61 850.24c11.02-6.28 23.92-8 36.36-9.08 15.84-0.77 32.29-0.2 47.21 5.7401-9.8 9.33-22.82 15.11-36.21 16.7-16.72 1.9299-34.14-2.9601-47.36-13.36z" fill="#E46B70" stroke="#E46B70"/>
	<path d="m616.04 899.02c8.07-5.79 16.87-10.52 26-14.42 4.68 2.32 9.44 4.48 14.31 6.39 0.02 2.96 0.13 5.92 0.15 8.89-0.22 2.02 0.58 5.3-2.43 5.44-10.51 3.01-20.5 7.91-29.08 14.73-0.8 0.59-1.35 1.44-1.89 2.27-3.29 2.04-5.8 5.03-8.16 8.05-11.01 13.69-15.81 31.28-17.43 48.51-3.11 40.43 6.96 80.32 17.84 118.91-7.89 2.0699-15.27 6.2799-20.85 12.26-7.5-24.71-14.42-49.69-18.2-75.27-1.35-9.2101-2.25-18.47-2.69-27.76-0.51-10.95-0.15-21.92 0.89-32.83 0.81-9.09 2.49-18.11 5.39-26.77 3.42-10.4 8.83-20.02 15.36-28.77 6.07-7.39 13.02-14.03 20.79-19.63z" fill="#8D9194" stroke="#8D9194"/>
	<path d="m778.4 894.84c5.91-2.56 11.98-4.76 17.65-7.85 7.83 2.78 14.41 7.89 21.24 12.45 8.43 8.42 16.25 17.55 22 28.06 2.02 3.78 3.95 7.63 5.8 11.51 4.73 10.53 8.45 21.51 11.34 32.69 4.37 16.11 6.82 32.66 9.03 49.18 2.18 6.41 5.1 12.59 6.75 19.2 3.32 11.65 5.24 23.65 6.69 35.67 1.15 9.09 1.79 18.24 2.89 27.34-1.58-0.4-3.16-0.7799-4.71-1.21-1.05-0.3101-2.09-0.62-3.12-0.9301-1.07-3.09-4.86-3.7999-7.21-5.6599-1.86 2.0299-3.79 4.0699-4.94 6.61-0.99 0.3199-1.97 0.66-2.94 1-0.06-12.04-0.03-25.14-7.28-35.4-4.78-7.3199-14.15-11.11-22.65-8.85-6.47 1.12-12.59 4.41-16.92 9.37-4.99 5.2999-10.03 10.55-14.97 15.9-0.26-0.2201-0.76-0.66-1.02-0.89-0.3701-2.77-0.54-5.55-1.1201-8.28l-0.21-0.46c-4.07-0.0801-8.13 0.0299-12.18-0.13-0.76-0.04-2.27-0.11-3.03-0.14 8.76-13.69 19.3-26.17 30.66-37.76 3.5-3.62 7.62-6.59 10.93-10.41 3.27-2.62 6.55-5.24 10.04-7.58 7.39-3.8 11.49-12.11 10.91-20.27-0.6801-11.42-4.38-22.4-7.77-33.24-6.08-16.63-13.51-33.75-27.09-45.66l-1.52-0.96c-5.92-4.18-11.69-8.75-18.61-11.21-2.68-1.26-5.58-1.92-8.46-2.49l-0.02-0.27c-0.0599-3.11-0.0499-6.22-0.1599-9.33m65.99 136.28c-1.88 1.88-3.69 3.8199-5.54 5.72-0.59 0.98-2.03 3.1 0.09 3.39 3.33 0.9401 6.81 1.3301 10.22 1.99 0.88 0.28 1.78 0.54 2.7 0.77 0.76-4.5599-1.77-8.72-3.23-12.86-1.46 0.15-2.89 0.45-4.24 0.99z" fill="#8D9194" stroke="#8D9194"/>
	<path d="m656.35 890.99c17.37 7.03 35.83 11.06 54.46 12.75 13.99 15.17 27.35 30.91 41.17 46.24 6.16 7.11 12.71 13.89 18.53 21.29-11.31 16.38-22.86 32.61-34.29 48.92-5.99 8.35-11.59 17-17.87 25.14-29.07-41.92-58.76-83.41-87.8-125.36 2.96-0.17 5.94-0.21 8.9-0.54 5.5 0.11 11.01 0.04 16.51-0.4 0.27-4.02 0.28-8.04 0.3-12.05 0.05-2.37 0.23-4.74 0.24-7.1-0.02-2.97-0.13-5.93-0.15-8.89z" fill="#F8B57E" stroke="#F8B57E"/>
	<path d="m710.81 903.74c22.75 1.44 45.74-1.45 67.32-8.86-0.01 3.1 0.13 6.2 0.43 9.29l0.02 0.27c0.21 2.83 0.28 5.68 0.25 8.53-0.02 2.03 0 4.07 0.03 6.13 2.66 0.09 5.32 0.1801 7.99 0.27 6.55 0.14 13.1 0.24 19.64 0.61-11.81 17.22-24.05 34.14-35.98 51.29-5.82-7.4-12.37-14.18-18.53-21.29-13.82-15.33-27.18-31.07-41.17-46.24z" fill="#F6986D" stroke="#F6986D"/>
	<path d="m778.58 904.44c2.88 0.57 5.78 1.23 8.46 2.49 6.14 3.83 12.19 7.85 18.61 11.21l1.52 0.96c-0.17 0.22-0.51 0.66-0.68 0.88-6.54-0.37-13.09-0.47-19.64-0.61-2.65-2.17-5.37-4.24-8.02-6.4 0.03-2.85-0.04-5.7-0.25-8.53z" fill="#E8E9EA" stroke="#E8E9EA"/>
	<path d="m639.45 919.43c5.5-4.28 11.19-8.32 16.81-12.45-0.02 4.01-0.03 8.03-0.3 12.05-5.5 0.44-11.01 0.51-16.51 0.4z" fill="#E9E9EA" stroke="#E9E9EA"/>
	<path d="m577.01 925.69c6.6-0.78 12.18-4.64 18.24-7.04-6.53 8.75-11.94 18.37-15.36 28.77-3.4-3.93-7.41-7.91-12.86-8.46-9.76-1.9-19.74 6.16-20.14 16.04-0.75 8.47 5.72 16.93 14.16 18.24 4.51 1.07 8.98-0.7 13.15-2.24 0.08 0.8 0.23 2.4 0.3 3.19-1.04 10.91-1.4 21.88-0.89 32.83-4.95-3.09-11.36-3.68-16.65-1.07-7.57 3.31-11.86 12.45-9.45 20.38 1.88 7.7301 9.62 13.19 17.5 12.78 4.21 0.13 7.83-2.26 11.29-4.33 3.78 25.58 10.7 50.56 18.2 75.27-8.31 9.0599-12.36 21.83-10.51 34.02 1.52 12.06 9.02 22.68 18.73 29.71 5.33 5.96 13.56 8.4 21.28 9.2899 17 1.9801 34.5-8.0499 41.5-23.64 5.73-12.12 5.59-27.64-2.33-38.76-4.36-7.63-10.26-14.62-18.1-18.83 5.37-4.09 8.65-11.1 7.19-17.85-1.49-9.1-11.28-15.69-20.27-13.79-8.26 1.41-14.77 9.49-14.25 17.86 0.15 3.12 1.44 6.0099 2.5 8.9099-1.65 0.1901-3.28 0.4601-4.89 0.8201-10.88-38.59-20.95-78.48-17.84-118.91 1.62-17.23 6.42-34.82 17.43-48.51 2.75 4.34 5.49 8.69 8.23 13.04-3.85 4.15-6.43 9.86-5.16 15.6 0.92 7.14 6.92 13.09 13.99 14.2 3.39 0.86 6.82-0.1 10.09-1.03 19.1 28.64 38.19 57.32 58.91 84.82 3.63 4.7 7.32 9.37 11.24 13.84-4.72-1.0499-9.92-1.5699-14.25 1.05-9.43 4.35-12.4 17.97-5.78 25.92 5.15 7.2599 16.35 9.2699 23.56 3.98 7.54-5.12 9.84-15.89 5.1-23.66 5.7-4.78 10.11-10.82 14.76-16.56 8.5-10.76 16.65-21.79 24.74-32.85 2.66 3.9301 5.89 7.8401 10.55 9.4 8.24 3.1901 18.56-1.16 21.84-9.39 3.04-6.67 1.3-15.33-4.42-20.02-2.65-2.46-6.2-3.42-9.5-4.66l-0.04-0.94c14.93-20.57 29.09-41.69 43.37-62.7 5.79 10.53 9.56 22.04 12.72 33.6 2.22 8.82 4.9 17.75 4.58 26.95-0.1299 2.78-0.21 6.0099-2.71 7.79-2.95 2.44-4.97 5.74-5.64 9.52-3.49 2.34-6.77 4.96-10.04 7.58-3.7 1.86-6.74 4.6901-9.76 7.47-12.67 10.71-23.42 23.45-33.45 36.6-5.97-0.2001-12.12 2.49-15.36 7.63-4.66 6.3899-3.84 15.96 1.64 21.61-8.21 13.76-15.25 28.46-18.7 44.18-1.92 9.79-2.64 20.71 2.54 29.69 2.57 4.97 7.77 7.58 11.34 11.72 3.15 3.7 8.22 4.26 12.78 4.1899 4.09 0.29 8.59 0.7301 12.18-1.6799 3.21-1.84 5.21-5.86 3.97-9.47-1.21-3.99-5.01-6.3-8.6-7.89 8.2401-0.92 14.79-8.67 14.57-16.9 0.29-9.16-7.88-17.89-17.2-17.41-5.4901-0.3199-10.27 2.73-14.06 6.38 3.1801-13.89 9.91-26.6 16.91-38.87l0.18 1.3301c8.83-1.6001 16.43-11.19 13.4-20.14 0.83-0.4701 1.68-0.89 2.57-1.26 0.2599 0.23 0.7599 0.6699 1.02 0.89 4.94-5.3501 9.98-10.6 14.97-15.9 4.33-4.96 10.45-8.25 16.92-9.37 7.37 0.73 14.61 4.1899 18.69 10.57-5.38 1.3301-11.12 3.24-14.23 8.1801-5.4301 7.47-3.5 18.94 4.19 24.11 4.56 3.62 10.61 3.47 16.08 2.77 1.15-0.0701 2.28-0.13 3.44-0.14 1.95 11.2 1.42 22.69 0.5 33.97-6.31-3.38-14.7-3.6899-20.42 1.05-6.59 4.77-9 14.44-4.98 21.61 3.35 6.95 11.29 10.52 18.79 9.41-3.09 8.09-6.94 16.84-14.78 21.37-4.3199-5.38-11.82-6.26-18.11-4.4801-4.35 0.26-9.42 1.13-11.7 5.3501-2.59 4.2799 0.16 9.6899 4.08 12.06 3.73 2.72 8.56 2.92 12.91 1.85 3.77-0.34 7.73-0.4099 11.09-2.39 0.9 0.04 2.7 0.1201 3.6 0.15-7.26 4.37-9.81 14.43-6.1201 21.94 4.29 9.96 18.93 13.34 26.9 5.7999 6.8-5.34 8.26-15.98 3.32-23.02-2.99-4.6901-8.2-6.9601-13.4-8.2401 5.83-4.49 10.69-10.24 13.92-16.87 4.45-8.08 6.34-17.16 9.04-25.89 0.63-2.64 0.76-5.3501 1.17-8.01-0.17 6.37-0.04 12.75-0.09 19.13-0.21 2.2799 0.87 4.35 1.86 6.34-1.01 1.37-1.78 2.9399-1.66 4.71-0.1801 18.34 0.05 36.68-0.09 55.01 0.34 9.9-0.81 19.9 0.8 29.71l-0.9-0.61c0.02 26.98 0 53.95 0.0099 80.92 0.05 4.4399-0.45 9.02 1 13.32-0.77 1.8501-1.04 3.8401-0.99 5.8501-5.03 0.24-10.05 0.1699-15.07 0.11 4.39-3.8401 7.81-9.28 7.3-15.34-0.11-10.16-10.55-18.52-20.5-16.43-9.31 1.4199-16.16 11.41-13.91 20.61 0.71 4.4399 3.78 7.88 6.66 11.13-16.83 0.13-33.65 0.13-50.48-0.03 3.03-2.85 5.92-6.15 6.89-10.3 1.95-7.3601-1.63-15.77-8.35-19.36-6.33-3.7999-15.23-2.85-20.42 2.4501-5.54 5.13-7.1 13.92-3.67 20.65 1.24 2.73 3.64 4.64 5.88 6.5499-17.11 0.2001-34.22 0.12-51.33 0.04 3.77-3.12 6.97-7.3 7.39-12.34 1.05-7.41-3.27-15.09-10.15-18.03-7.28-3.71-16.85-0.92-21.32 5.83-5.71 7.5801-3.33 19.23 4.42 24.51-17.13 0.17-34.26 0.17-51.38 0.02 3.03-2.46 5.96-5.38 6.94-9.28 3.19-9.4-3.39-20.96-13.34-22.43-9.57-2.0801-20.07 5.6499-20.6 15.49-0.69 6.27 2.43 12.48 7.41 16.22-16.86 0.12-33.73 0.16-50.59 0 2.72-3 5.52-6.17 6.53-10.19 2.01-6.8101-1.03-14.45-6.72-18.53-2.91-2.36-6.7-2.9301-10.26-3.6-0.19-10.15-0.16-20.29-0.12-30.43 8.41 0.1899 16.47-6.4399 17.44-14.88 1.64-10.08-7.08-20.47-17.44-19.94-0.1-10.16-0.12-20.31-0.05-30.46 5.29-0.71 10.86-2.52 14.11-7.0499 5-6.49 4.69-16.35-0.91-22.38-3.09-3.6901-7.8799-5.17-12.46-5.89-0.12-10.18-0.27-20.37 0.05-30.54 8.39-0.1799 15.86-7.09 16.78-15.41 1.3199-9.88-7.38-19.95-17.51-19.34 0.01-10.16-0.15-20.32 0.11-30.47 6.43-0.76 12.97-3.97 15.76-10.12 4.56-8.64 0.02-20.34-9.06-23.81-6.33-2.8199-13.56-0.8199-18.83 3.25-14.62-3.1599-29.26-6.22-43.91-9.25-1.84-0.39-3.68-0.7899-5.51-1.1599-0.05-0.77-0.14-2.3101-0.19-3.0801 0.95-0.71 1.9-1.4199 2.84-2.15l-0.8 0.3c0.71-1.39 1.04-2.92 1.15-4.45 0.62-9.26 2.31-18.41 2.94-27.67 0.13-4.36 2.78-8.43 1.82-12.82 1.85-1.3 1.87-3.69 2.4-5.66 1.73-8.38 4.39-16.51 6.87-24.68 4.9-13.02 11.09-25.69 20.03-36.45-0.96-0.66-1.9-1.31-2.84-1.95 3.87-1.9 8.11-3.25 11.37-6.19 8.1802-6.9501 18.23-11.63 28.78-13.56m55.36 78.77c-10.54 1.55-17.74 13.68-13.44 23.58 3.26 9.45 15.55 13.97 24.25 9.1599 7.63-3.7699 11.6-13.68 8.21-21.57-2.74-7.58-11.06-12.54-19.02-11.17m67.95 131.97c-6.9 2.33-11.97 9.25-11.67 16.6-0.41 8.9399 7.45 17.03 16.33 17.25 8.89 0.73 17.75-6.37 18.3-15.39 0.87-6.21-2.11-12.46-7.09-16.11-4.44-3.4901-10.6-3.85-15.87-2.35m-68.96 65.01c-7.43 1.6901-13.68 8.8501-13.57 16.61-0.55 8.95 7.25 17.47 16.18 17.85 5.32 0.53 10.54-2 14.19-5.74 4.89-5.51 5.79-13.98 2.06-20.36-3.61-6.45-11.65-10-18.86-8.3601m71.04 0.0101c-8.04 1.5601-14.17 9.42-13.78 17.59 0.09 9.3999 8.94 17.79 18.43 16.84 9.13-0.23 16.85-8.75 16.25-17.85 0.17-10.45-10.72-19.18-20.9-16.58m70.97-0.0101c-6.33 1.3301-11.89 6.2001-13.28 12.64-3.26 10.17 5.34 21.67 15.94 21.83 9.6899 0.8099 18.87-8.2101 18.15-17.92 0.15-10.3-10.74-19.13-20.81-16.55m-143.09 65.92c-8.67 2.22-14.21 11.87-12.14 20.51 1.07 5.87 5.7 10.64 11.17 12.73 5.26 1.61 11.38 1.03 15.85-2.36 6.05-4.11 8.91-12.28 6.64-19.25-2.54-8.83-12.71-14.43-21.52-11.63m70.94 0.01c-8.02 2.11-13.54 10.38-12.51 18.61 0.6 8.98 9.37 16.23 18.29 15.41 9.32-0.11 17.26-9.0601 16.33-18.33 0.0299-10.79-12-18.95-22.11-15.69m70.98-0.01c-6.7 1.6-11.83 7.77-12.6 14.56-1.56 9.89 7.21 20.1 17.34 19.48 10.03 0.5599 18.69-9.48 17.14-19.3-0.64-10.31-12.08-17.91-21.88-14.74m70.18 0.12c-8.98 2.6801-14.45 13.52-11.1 22.3 1.21 4.26 4.66 7.4399 8.3799 9.63 7.35 4.27 17.82 1.84 22.36-5.42 5.39-7.37 3.51-18.76-3.99-23.96-4.3699-3.44-10.41-3.98-15.65-2.55z" fill="#E6E7E8" stroke="#E6E7E8"/>
	<path d="m807.17 919.1c13.58 11.91 21.01 29.03 27.09 45.66 3.39 10.84 7.09 21.82 7.77 33.24 0.58 8.16-3.52 16.47-10.91 20.27 0.67-3.78 2.69-7.08 5.64-9.52 2.5-1.78 2.58-5.01 2.71-7.79 0.32-9.2-2.36-18.13-4.58-26.95-3.16-11.56-6.93-23.07-12.72-33.6-14.28 21.01-28.44 42.13-43.37 62.7-6.01 8.63-12.2 17.14-18.43 25.61-8.09 11.06-16.24 22.09-24.74 32.85-4.65 5.7401-9.06 11.78-14.76 16.56-3.29-1.9-6.16-4.4301-8.63-7.29-3.92-4.47-7.61-9.14-11.24-13.84-20.72-27.5-39.81-56.18-58.91-84.82-6.41-9.52-12.44-19.29-18.92-28.77-2.74-4.35-5.48-8.7-8.23-13.04 2.36-3.02 4.87-6.01 8.16-8.05 2.46-0.86 4.91-1.75 7.45-2.35 29.04 41.95 58.73 83.44 87.8 125.36 6.28-8.14 11.88-16.79 17.87-25.14 11.43-16.31 22.98-32.54 34.29-48.92 11.93-17.15 24.17-34.07 35.98-51.29 0.17-0.2201 0.51-0.6601 0.68-0.8801z" fill="#BDBFC1" stroke="#BDBFC1"/>
	<path d="m839.66 924.06c17.55-0.53 36.29 3.64 49.64 15.68 4.27 4.38 8.98 8.42 12.39 13.55-1.78 7.66 2.94 16.78 10.79 18.76 2.2 5.05 4.18 10.19 6 15.4 0.73 0.45 1.47 0.9 2.23 1.38-1.17 5.42 1.77 10.48 2.63 15.73-3.41-0.21-6.95-0.63-10.23 0.61-7.39 2.35-12.72 10.15-11.87 17.92 0.62 8.0999 7.44 15.53 15.72 15.97 4.38 0.59 8.54-1.2001 12.31-3.2101 0.97 7.72 2.04 15.42 2.67 23.18 2.31 1.03 3.39 3.22 2.03 5.52-1.5 0.12-3.0099 0.2799-4.48 0.5299-16.87 3.53-33.76 6.9701-50.59 10.67-1.45-12.02-3.37-24.02-6.69-35.67-1.65-6.61-4.57-12.79-6.75-19.2-2.21-16.52-4.66-33.07-9.03-49.18 2.63-2.43 5.54-4.77 7.07-8.09 3.96-8.12 0.35-19.42-8.1-23.09-3.13-1.84-6.83-1.72-10.31-1.51-1.85-3.88-3.78-7.73-5.8-11.51 0.11-1.1599 0.24-2.2999 0.37-3.4399z" fill="#E6E7E8" stroke="#E6E7E8"/>
	<path d="m546.89 955c0.4-9.88 10.38-17.94 20.14-16.04 5.45 0.55 9.46 4.53 12.86 8.46-2.9 8.66-4.58 17.68-5.39 26.77-0.07-0.79-0.22-2.39-0.3-3.19-4.17 1.54-8.64 3.31-13.15 2.24-8.44-1.31-14.91-9.77-14.16-18.24z" fill="#D2D3D5" stroke="#D2D3D5"/>
	<path d="m845.09 939.01c3.48-0.21 7.18-0.33 10.31 1.51 8.45 3.67 12.06 14.97 8.1 23.09-1.53 3.32-4.44 5.66-7.07 8.09-2.89-11.18-6.61-22.16-11.34-32.69z" fill="#D2D3D5" stroke="#D2D3D5"/>
	<path d="m618.01 959.01c-1.27-5.74 1.31-11.45 5.16-15.6 6.48 9.48 12.51 19.25 18.92 28.77-3.27 0.93-6.7 1.89-10.09 1.03-7.07-1.11-13.07-7.06-13.99-14.2z" fill="#D2D3D5" stroke="#D2D3D5"/>
	<path d="m912.48 972.05c-7.85-1.98-12.57-11.1-10.79-18.76 1.29 1.81 2.61 3.62 3.92 5.44 2.45 4.34 4.9 8.72 6.87 13.32z" fill="#D0D1D4" stroke="#D0D1D4"/>
	<path d="m760.37 1028.7c6.23-8.47 12.42-16.98 18.43-25.61l0.04 0.94c3.3 1.24 6.85 2.2 9.5 4.66 5.72 4.69 7.46 13.35 4.42 20.02-3.28 8.23-13.6 12.58-21.84 9.39-4.66-1.5599-7.89-5.47-10.55-9.4z" fill="#D2D3D5" stroke="#D2D3D5"/>
	<path d="m556.96 1006c5.29-2.61 11.7-2.02 16.65 1.07 0.44 9.29 1.34 18.55 2.69 27.76-3.46 2.0699-7.08 4.46-11.29 4.33-7.88 0.41-15.62-5.0499-17.5-12.78-2.41-7.93 1.88-17.07 9.45-20.38z" fill="#D2D3D5" stroke="#D2D3D5"/>
	<path d="m632.37 1004.5c7.96-1.37 16.28 3.59 19.02 11.17 3.39 7.89-0.58 17.8-8.21 21.57-8.7 4.8101-20.99 0.29-24.25-9.1599-4.3-9.9 2.9-22.03 13.44-23.58z" fill="#D2D3D5" stroke="#D2D3D5"/>
	<path d="m913.11 1005.2c3.28-1.24 6.82-0.82 10.23-0.61 2.24 8.59 3.61 17.36 5.16 26.09 0.29 1.73 0.53 3.45 0.77 5.2-3.77 2.01-7.93 3.8-12.31 3.2101-8.28-0.4401-15.1-7.8701-15.72-15.97-0.85-7.7701 4.48-15.57 11.87-17.92z" fill="#D2D3D5" stroke="#D2D3D5"/>
	<path d="m811.32 1033.3c3.02-2.7799 6.06-5.61 9.76-7.47-3.31 3.8201-7.43 6.79-10.93 10.41-11.36 11.59-21.9 24.07-30.66 37.76-1.3-0.0801-2.6-0.15-3.89-0.21 0.72-1.3201 1.45-2.64 2.27-3.89 10.03-13.15 20.78-25.89 33.45-36.6z" fill="#BDBFC1" stroke="#BDBFC1"/>
	<path d="m844.39 1031.1c1.35-0.54 2.78-0.84 4.24-0.99 1.46 4.14 3.99 8.3 3.23 12.86-0.92-0.23-1.82-0.49-2.7-0.77-0.43-1.0399-0.8199-2.08-1.17-3.12-0.87-2.8-1.62-5.74-3.6-7.98z" fill="#BDBFC1" stroke="#BDBFC1"/>
	<path d="m838.85 1036.8c1.85-1.9 3.66-3.84 5.54-5.72 1.98 2.24 2.73 5.1801 3.6 7.98-3.19-0.07-6.29-0.85-9.14-2.26z" fill="#D2D3D5" stroke="#D2D3D5"/>
	<path d="m838.94 1040.2c-2.12-0.29-0.68-2.41-0.09-3.39 2.85 1.41 5.95 2.1901 9.14 2.26 0.35 1.04 0.74 2.0801 1.17 3.12-3.41-0.6599-6.89-1.05-10.22-1.99z" fill="#E4E5E7" stroke="#E4E5E7"/>
	<path d="m828.94 1058.6c8.5-2.26 17.87 1.53 22.65 8.85 7.25 10.26 7.22 23.36 7.28 35.4 0.97-0.34 1.95-0.6801 2.94-1 2.53 10.8 2.24 22.01 1.64 33.02-1.08 12.88-2.89 25.89-7.64 38.01-3.35 8.45-8.93 17.91-18.72 19.53-0.22-0.23-0.65-0.6799-0.8701-0.9099 7.84-4.53 11.69-13.28 14.78-21.37 3.67-10.33 5.49-21.2 6.61-32.07 0.92-11.28 1.45-22.77-0.5-33.97-1.16 0.01-2.29 0.0699-3.44 0.14 0.85-11.9 0.43-24.61-6.04-35.06-4.0799-6.3798-11.32-9.8398-18.69-10.57z" fill="#BDBFC1" stroke="#BDBFC1"/>
	<path d="m508.15 1065.2c14.65 3.03 29.29 6.0901 43.91 9.25 3.96 0.86 7.93 1.6901 11.89 2.5901 0.08 4.61 0.05 9.23 0.07 13.86-0.21 3.9199-0.99 7.7899-1.45 11.69-3.84 28.25-7.78 56.5-11.33 84.79-3.43 23.52-6.37 47.11-9.63 70.65-0.81 6.85-2.08 13.65-2.52 20.54-3.69 23.04-6.26 46.24-9.64 69.33-0.43 3.38-1.4 7.0299 0.4 10.22 5.7 12.47 10.85 25.21 16.83 37.56 0.93 3.6201 1.86 7.64 0.24 11.22-1 2.45-3.24 4.0299-5.48 5.25-6.06 1.62-12.87-1.04-16.19-6.35-3.18-5.14-5.36-10.84-8.76-15.85 0.42 5.16 0.77 10.33 1.06 15.51 0.38 11.84 1.4 23.65 1.73 35.49 0.14 5.4501-2.17 11.5-7.28 14.06-4.08 2.22-9.46 0.91-12.35-2.64-3.69-4.22-4.53-10-4.77-15.39-3.47-0.23-7.25-0.41-10-2.8099-5.15-4.26-6.19-11.25-7.5-17.4-2.87-1.5601-5.07-4.27-5.15-7.63-0.91-12.03-0.9-24.11-1.48-36.16-0.46-8.35-0.42-16.71-1.03-25.05 0.06-5.3099-0.28-10.59-0.56-15.88-0.36-5.29 1.29-10.5 3.9-15.04 1.91-3.03 1.99-6.67 2.46-10.1 3.78-28.77 7.84-57.51 11.55-86.29 2.91-20.67 5.62-41.37 8.42-62.05 3.08-22.47 6.08-44.94 9.14-67.41 1.12-8.6603 2.26-17.32 3.52-25.96z" fill="#F8B57E" stroke="#F8B57E"/>
	<path d="m878.9 1075.8c16.83-3.7 33.72-7.14 50.59-10.67 1.91 17.23 4.52 34.39 6.77 51.58 2.33 16.83 4.38 33.71 6.94 50.51 4.06 32.28 8.59 64.51 12.96 96.76 2.08 16.07 4.35 32.11 6.44 48.17 0.5 3.98 3.4901 7.05 4.46 10.91 2.12 5.79 0.92 11.98 0.77 17.97-0.15 5.24-0.39 10.48-0.51 15.73-0.68 15.45-1.2 30.89-1.76 46.34-0.26 4.87 0.03 11.38-5.41 13.55-1.46 6.02-2.31 12.88-7.22 17.24-2.89 2.7001-7 2.9-10.71 3.36 0.11 0.7301 0.22 1.49 0.35 2.27-0.73 4.6-1.64 9.5601-4.98 13.08-2.78 3.1799-7.65 4.6899-11.56 2.76-5.83-2.52-8.34-9.38-7.8701-15.36 0.7-16.71 1.84-33.39 2.55-50.09-2.71 4.9-5.18 9.9401-7.88 14.86-3.08 5.8301-10.47 9.52-16.88 7.25-3.78-1.28-6.21-5.1599-6.3-9.0499-0.35-4.24 1.66-8.11 3.3199-11.86 5.33-12 10.58-24.04 15.92-36.04-0.25-0.91-0.48-1.79-0.7-2.66-0.61-10.16-2.62-20.17-3.76-30.27-5.44-40.19-10.77-80.39-16.27-120.58-3.02-22.02-5.68-44.1-9.06-66.07-0.86-9.1299-2.46-18.17-3.55-27.27 0.51-2.1001 1.04-4.2001 1.53-6.29 1.55 0.4301 3.13 0.8099 4.71 1.21-1.0998-9.1001-1.7398-18.25-2.8898-27.34z" fill="#F8B57E" stroke="#F8B57E"/>
	<path d="m847.63 1069.2c6.47 10.45 6.89 23.16 6.04 35.06-5.47 0.7-11.52 0.85-16.08-2.77-7.69-5.17-9.6201-16.64-4.19-24.11 3.11-4.9401 8.85-6.8501 14.23-8.1801z" fill="#D2D3D5" stroke="#D2D3D5"/>
	<path d="m552.06 1074.5c5.27-4.0699 12.5-6.0699 18.83-3.25 9.08 3.4701 13.62 15.17 9.06 23.81-2.79 6.15-9.33 9.36-15.76 10.12-0.18-1-0.53-2.99-0.7-3.99 1.16-3.29 0.55-6.84 0.53-10.24-0.02-4.63 0.01-9.25-0.07-13.86-3.96-0.9001-7.93-1.7302-11.89-2.5901z" fill="#D2D3D5" stroke="#D2D3D5"/>
	<path d="m617.74 1088.1c-0.52-8.3701 5.99-16.45 14.25-17.86 8.99-1.8999 18.78 4.6901 20.27 13.79 1.46 6.75-1.82 13.76-7.19 17.85-7.5-4.22-16.31-5.8199-24.83-4.87-1.06-2.9001-2.35-5.7899-2.5-8.9099z" fill="#D2D3D5" stroke="#D2D3D5"/>
	<path d="m697.99 1071.9c4.33-2.62 9.53-2.1 14.25-1.05 2.47 2.86 5.34 5.39 8.63 7.29 4.74 7.77 2.44 18.54-5.1 23.66-7.21 5.2899-18.41 3.2799-23.56-3.98-6.62-7.95-3.65-21.57 5.78-25.92z" fill="#D2D3D5" stroke="#D2D3D5"/>
	<path d="m762.51 1077.6c3.24-5.14 9.39-7.8301 15.36-7.63-0.82 1.25-1.55 2.5699-2.27 3.89 1.29 0.0599 2.59 0.1299 3.89 0.21 0.76 0.03 2.27 0.1 3.03 0.14-6.73 7.86-13.11 16.06-18.37 25-5.48-5.65-6.3-15.22-1.64-21.61z" fill="#D2D3D5" stroke="#D2D3D5"/>
	<path d="m782.52 1074.2c4.05 0.1599 8.11 0.0499 12.18 0.13l0.21 0.46c-3.4 0.2-7.94-1.47-10.26 1.87-10.28 12.39-18.37 26.48-24.92 41.16-4.35 10-7.84 20.48-9.24 31.33-0.97 8.72-0.44 18.26 4.76 25.67 2.17 2.86 4.67 5.88 8.24 6.98 1.84 3.4299 5.12 5.65 8.62 7.1799-4.56 0.0701-9.63-0.49-12.78-4.1899-3.57-4.14-8.77-6.75-11.34-11.72-5.18-8.98-4.46-19.9-2.54-29.69 3.45-15.72 10.49-30.42 18.7-44.18 5.2599-8.94 11.64-17.14 18.37-25z" fill="#BDBFC1" stroke="#BDBFC1"/>
	<path d="m784.65 1076.6c2.3199-3.34 6.86-1.67 10.26-1.87 0.58 2.73 0.75 5.51 1.1201 8.28-0.89 0.37-1.7401 0.7899-2.57 1.26-5.09 5.84-9.46 12.26-13.58 18.81-7 12.27-13.73 24.98-16.91 38.87-1.55 6.1801-2.5099 12.76-1.11 19.07 0.78 3.61 3.95 5.83 6.86 7.71-0.74 0-2.22-0.02-2.97-0.03 0.39 0.5901 1.15 1.76 1.53 2.3401-3.33 2.4399-5.48 6.58-3.79 10.7-3.57-1.1-6.07-4.12-8.24-6.98-5.2-7.41-5.73-16.95-4.76-25.67 1.4-10.85 4.89-21.33 9.24-31.33 6.55-14.68 14.64-28.77 24.92-41.16z" fill="#FEFEFE" stroke="#FEFEFE"/>
	<path d="m793.46 1084.3c3.03 8.95-4.57 18.54-13.4 20.14l-0.18-1.3301c4.12-6.5499 8.49-12.97 13.58-18.81z" fill="#D2D3D5" stroke="#D2D3D5"/>
	<path d="m861.81 1101.9c1.15-2.54 3.08-4.5801 4.94-6.61 2.35 1.86 6.14 2.5699 7.21 5.6599 0.44 2.42 1 4.8201 1.59 7.2201 1.09 9.1 2.69 18.14 3.55 27.27-1.34-2.1799-2.72-4.33-4.16-6.4199-0.23 6.96-0.98 13.89-2.02 20.78-0.41 2.6599-0.54 5.37-1.17 8.01-2.7 8.73-4.59 17.81-9.04 25.89-3.23 6.63-8.09 12.38-13.92 16.87-3.38 1.6901-7 2.8401-10.7 3.52-0.9-0.0299-2.7-0.11-3.6-0.15 3.45-2.7799 4.64-7.48 2.6-11.48 9.79-1.62 15.37-11.08 18.72-19.53 4.75-12.12 6.56-25.13 7.64-38.01 0.6-11.01 0.89-22.22-1.64-33.02z" fill="#FEFEFE" stroke="#FEFEFE"/>
	<path d="m615.35 1097.8c1.61-0.36 3.2401-0.63 4.89-0.8201 8.52-0.95 17.33 0.65 24.83 4.87 7.84 4.2101 13.74 11.2 18.1 18.83 3.42 9.7999 4.71 20.68 1.21 30.65-5.17 16.29-21.31 28.18-38.39 28.39-8.2 0.42-15.95-2.62-23.27-5.9299-9.71-7.03-17.21-17.65-18.73-29.71-1.85-12.19 2.2-24.96 10.51-34.02 5.58-5.9801 12.96-10.19 20.85-12.26m3.07 14.73c-12.7 3.0599-21.74 16.43-19.59 29.37 1.62 14.44 16.75 25.42 31 22.35 14.1-2.23 24.37-17.26 21.18-31.21-2.46-14.49-18.44-24.58-32.59-20.51z" fill="#619C9A" stroke="#619C9A"/>
	<path d="m873.96 1101c1.03 0.3101 2.07 0.62 3.12 0.9301-0.49 2.09-1.02 4.1899-1.53 6.29-0.59-2.4001-1.15-4.8001-1.59-7.2201z" fill="#CEC2B9" stroke="#CEC2B9"/>
	<path d="m618.42 1112.5c14.15-4.0701 30.13 6.02 32.59 20.51 3.19 13.95-7.08 28.98-21.18 31.21-14.25 3.0701-29.38-7.91-31-22.35-2.15-12.94 6.89-26.31 19.59-29.37m3.98 10.06c-7.73 1.12-13.71 8.66-13.19 16.43 0.29 8.52 8.34 15.77 16.86 14.99 9.25-0.34 16.67-10 14.48-19.01-1.51-8.1101-10.03-14.02-18.15-12.41z" fill="#FEFEFE" stroke="#FEFEFE"/>
	<path d="m364.18 1121.5c0.42-0.3199 1.26-0.9399 1.68-1.25l-0.22 0.87c1.71 1.49 4.26 0.59 6.33 0.83 9.19-0.45 18.47 0.7301 27.59-0.6699 3.1 0.0599 5.96 1.35 8.7 2.6799l-1.53 0.15c4.35 2.16 9.19 3.23 13.33 5.86-48.4 18.83-98.28 33.71-148.6 46.45-3.73 1.1799-8.02 1.1599-11.15 3.75 8.45-1.2101 16.62-3.87 24.9-5.86 42.96-11.28 85.46-24.37 127.1-39.84 3.22-1.14 6.32-2.72 9.7-3.33 1.71 0.28 3.35 0.91 4.99 1.49 8.51 4.7 16.04 10.92 22.77 17.89 2.99 2.25 5.31 5.22 6.98 8.5599-38.34 15.5-78.05 27.38-117.78 38.74-1.83 0.6-3.54 1.49-5.26 2.35-1.54 0.49-3.09 0.95-4.64 1.4-14.4 3.7599-28.83 7.4299-43.31 10.9-10.52 2.55-21.07 5.01-31.67 7.2001-0.91-5.8401 0.66-11.63 0.3-17.44 1.66-1.1899 1.22-3.4199 1.58-5.15 1.23-16.1 8.1-31.48 18.17-43.99 12.91-15.83 31.73-25.79 51.22-31.05 5.06 1.5599 10.44 0.47 15.64 0.7999 8.06-0.26 16.17 0.51 24.2-0.46-12.78-0.97-25.62 0.16-38.41-0.64 12.43-0.6399 24.93-0.1499 37.39-0.2399z" fill="#E6E7E8" stroke="#E6E7E8"/>
	<path d="m1042.4 1120.4c2.39 1.0801 5.0699 0.8 7.65 0.8401 16.98-0.0801 33.97 0.02 50.95-0.0601 5.29-0.1799 10.2 2.1 15.13 3.6801 10.9 3.89 21.26 9.4 30.27 16.69 14.13 11.58 23.95 28.07 28 45.84 2.09 12.91 3.0699 25.99 3.1799 39.07 0.0801 14.42-0.6799 28.9-2.99 43.14-0.4 0.02-1.1899 0.04-1.59 0.0599-4.38-5.23-7.02-11.6-9.98-17.66-10.18-22.16-19.07-44.88-28.07-67.53-16.51 10.16-34.07 19.77-53.5 22.65-11 1.3199-22.32 1.12-33.09-1.6-16.29-4.0901-31.13-12.31-45.33-21.04-8.69 21.96-17.35 43.94-27.1 65.46-3.4 7.04-6.38 14.45-11.54 20.43-2.42-3.36-1.73-7.86-2.35-11.75 1.75-3.3401 0.68-7.1801 0.46-10.72-0.43 1.0801-0.83 2.1901-1.21 3.3301-0.16-1.9501-0.28-3.9-0.3-5.8201 1.89-5.6399 0.5-11.63 0.8-17.43-0.23-5.21 0.97-10.59-0.79-15.61 0.06-6.49 1.02-12.92 1.71-19.35 1.38-11.49 5.89-22.45 11.95-32.25 7.75-12.41 19.1-22.34 31.97-29.18 7.68-4.12 15.85-7.24 24.21-9.66 3.98-1.12 8.17-0.58 12.25-0.6799l-0.6898-0.8501z" fill="#3C2515" stroke="#3C2515"/>
	<path d="m365.64 1121.1c11.3-0.09 22.63-0.38 33.92 0.16-9.12 1.4-18.4 0.22-27.59 0.6699-2.07-0.2399-4.62 0.6601-6.33-0.8299z" fill="#CAC6C3" stroke="#CAC6C3"/>
	<path d="m663.17 1120.7c7.92 11.12 8.06 26.64 2.33 38.76-7 15.59-24.5 25.62-41.5 23.64-7.72-0.8899-15.95-3.33-21.28-9.2899 7.32 3.3099 15.07 6.35 23.27 5.9299 17.08-0.21 33.22-12.1 38.39-28.39 3.5-9.9699 2.21-20.85-1.21-30.65z" fill="#BDBFC1" stroke="#BDBFC1"/>
	<path d="m325.36 1122l1.43-0.3c12.79 0.8 25.63-0.33 38.41 0.64-8.03 0.97-16.14 0.2-24.2 0.46-5.2-0.33-10.58 0.76-15.64-0.8z" fill="#FCFEFF" stroke="#FCFEFF"/>
	<path d="m622.4 1122.6c8.12-1.61 16.64 4.3 18.15 12.41 2.19 9.01-5.23 18.67-14.48 19.01-8.52 0.78-16.57-6.47-16.86-14.99-0.52-7.77 5.46-15.31 13.19-16.43z" fill="#619C9A" stroke="#619C9A"/>
	<path d="m406.73 1124.1l1.53-0.15c5.94 2.4401 12.07 4.5801 17.63 7.8501 0.28 0.21 0.83 0.62 1.11 0.8199-1.64-0.58-3.28-1.21-4.99-1.49-3.38 0.61-6.48 2.1899-9.7 3.33-41.64 15.47-84.14 28.56-127.1 39.84-8.28 1.99-16.45 4.6499-24.9 5.86 3.13-2.5901 7.42-2.5701 11.15-3.75 50.32-12.74 100.2-27.62 148.6-46.45-4.14-2.63-8.98-3.7-13.33-5.86z" fill="#BDBFC1" stroke="#BDBFC1"/>
	<path d="m564.08 1135.6c10.13-0.61 18.83 9.46 17.51 19.34-0.92 8.3201-8.39 15.23-16.78 15.41-0.32 10.17-0.17 20.36-0.05 30.54 4.58 0.72 9.37 2.2 12.46 5.89 5.6 6.0299 5.91 15.89 0.91 22.38-3.25 4.5299-8.82 6.34-14.11 7.0499 0.02-5.0599 0.15-10.12-0.39-15.15 1.05-19.29 0.3-38.68 0.47-58.01l-0.84 0.72c1.81-9.26 0.44-18.8 0.82-28.17z" fill="#D2D3D5" stroke="#D2D3D5"/>
	<path d="m700.32 1136.4c5.27-1.5 11.43-1.14 15.87 2.35 4.98 3.65 7.96 9.9 7.09 16.11-0.55 9.02-9.41 16.12-18.3 15.39-8.88-0.22-16.74-8.3101-16.33-17.25-0.3-7.35 4.77-14.27 11.67-16.6z" fill="#D2D3D5" stroke="#D2D3D5"/>
	<path d="m762.97 1142c3.79-3.65 8.57-6.7 14.06-6.38 9.3199-0.48 17.49 8.25 17.2 17.41 0.22 8.23-6.33 15.98-14.57 16.9-4.14-0.5701-8.55-0.8101-12.38 1.16-0.38-0.5801-1.14-1.75-1.53-2.3401 0.75 0.01 2.23 0.03 2.97 0.03-2.91-1.88-6.08-4.1-6.86-7.71-1.4002-6.3099-0.4402-12.89 1.1098-19.07z" fill="#D2D3D5" stroke="#D2D3D5"/>
	<path d="m837.19 1139.2c5.72-4.74 14.11-4.4301 20.42-1.05-1.12 10.87-2.94 21.74-6.61 32.07-7.5 1.11-15.44-2.4601-18.79-9.41-4.02-7.1701-1.61-16.84 4.98-21.61z" fill="#D2D3D5" stroke="#D2D3D5"/>
	<path d="m456.75 1159.1c0.17 0.3201 0.52 0.9601 0.69 1.28-35.12 13.84-71.16 25.3-107.45 35.68-3.95 1.1799-8.29 1.6699-11.56 4.4299-1.58 0.02-3.15-0.25-4.72-0.2999 1.72-0.86 3.43-1.75 5.26-2.35 39.73-11.36 79.44-23.24 117.78-38.74z" fill="#BDBFC1" stroke="#BDBFC1"/>
	<path d="m457.44 1160.4c0.17 0.3101 0.49 0.9401 0.65 1.25 1.58 4.97 4.54 9.34 6.23 14.27 1.09 3.13 2.14 6.29 3.83 9.16 0.98 2.1599 1.85 4.36 2.68 6.59-2.29 2.36-0.62 5.65-0.54 8.49-39.52-3.61-79.32-3.86-118.93-1.63-3.32 0.13-6.64 0.54-9.83 1.53-0.77 0.11-2.32 0.34-3.1 0.45 3.27-2.76 7.61-3.25 11.56-4.4299 36.29-10.38 72.33-21.84 107.45-35.68z" fill="#E6E7E8" stroke="#E6E7E8"/>
	<path d="m458.09 1161.6c4.59 7.2101 7.76 15.23 10.06 23.43-1.69-2.87-2.74-6.03-3.83-9.16-1.69-4.9302-4.65-9.3002-6.23-14.27z" fill="#BDBFC1" stroke="#BDBFC1"/>
	<path d="m767.28 1171.1c3.83-1.9701 8.24-1.7301 12.38-1.16 3.59 1.59 7.39 3.9 8.6 7.89 1.24 3.61-0.76 7.63-3.97 9.47-3.59 2.41-8.09 1.97-12.18 1.6799-3.5-1.5299-6.78-3.75-8.62-7.1799-1.6899-4.1201 0.4601-8.2601 3.7901-10.7z" fill="#619C9A" stroke="#619C9A"/>
	<path d="m1003 1184.5c14.2 8.73 29.04 16.95 45.33 21.04 10.77 2.72 22.09 2.9199 33.09 1.6 19.43-2.88 36.99-12.49 53.5-22.65 9 22.65 17.89 45.37 28.07 67.53 2.96 6.0599 5.6 12.43 9.98 17.66-0.91 4.16-1.91 8.3201-3.27 12.38-7.1799 22.29-22.37 41.77-41.93 54.59-13.5 8.9399-29.09 14.6-45.13 16.73-23.25 2.96-47.44-1.65-67.74-13.43-9.23-5.14-17.27-12.06-24.79-19.4-9.52-10.76-17.2-23.13-22.07-36.67-1.32-4.48-2.45-9-3.68-13.49 5.16-5.98 8.14-13.39 11.54-20.43 9.7499-21.52 18.41-43.5 27.1-65.46m14.14 39.78c-6.23 1.5599-10.62 8.21-9.41 14.57 0.88 6.67 7.68 11.76 14.33 10.78 6.5801-0.7001 11.93-7.0701 11.26-13.7-0.1799-7.8498-8.6799-13.92-16.18-11.65m95.19 0.15c-6.2 1.8301-10.32 8.7301-8.8 15.06 1.1801 6.12 7.29 10.74 13.51 10.2 6.8301-0.3099 12.64-6.7999 11.99-13.64-0.1-8.1001-9.07-14.3-16.7-11.62m-45.46 20.53c-3.67 10.03-8.0801 19.85-10.45 30.31-1.02 5.3999-2.0399 11.41 0.78 16.48 2.17 4.1799 7.36 5.46 11.74 5.16 3.47-0.3 7.46-1.2301 9.4501-4.39 2.5-3.63 2.5099-8.3101 1.97-12.5-1.76-13.04-7.78-24.89-12-37.19-0.74 0.54-1.23 1.25-1.49 2.13m-29.93 66.28c0.37 5.33 3.26 10.18 7.05 13.83 11.58 10.85 30.49 12.04 43.97 4.0701 6.28-3.85 11.96-10.25 12.24-17.94-21.09 0.19-42.18 0.11-63.26 0.04z" fill="#FAC458" stroke="#FAC458"/>
	<path d="m162.95 1189.8c8.22-3.9099 17.7-4.7 26.55-2.76 17.91 3.9801 31.73 21.12 31.56 39.51 0.25 13.31-6.57 26.32-17.42 33.97-7.18 4.8999-15.88 7.6599-24.6 7.33-11.57-0.17-22.73-5.77-30.25-14.48-8.2-9.85-11.56-23.54-8.43-36.01 2.82-12 11.38-22.45 22.59-27.56z" fill="#FAC458" stroke="#FAC458"/>
	<path d="m818.11 1187.1c6.29-1.7799 13.79-0.8999 18.11 4.4801 0.22 0.23 0.65 0.6799 0.8701 0.9099 2.04 4 0.85 8.7001-2.6 11.48-3.36 1.9801-7.32 2.05-11.09 2.39-4.65-1.89-10.4-4.64-10.86-10.34-0.4901-3.9799 2.6099-6.8699 5.5699-8.92z" fill="#619C9A" stroke="#619C9A"/>
	<path d="m1243.5 1186.5c5.16-0.97 10.49-1.02 15.65-0.01 14.91 2.66 27.48 14.43 31.62 28.94 3.5699 12.86 0.5599 27.31-8.1001 37.51-10.17 12.3-27.84 17.59-43.09 12.77-4.13-1.28-8.0599-3.16-11.6-5.6101-11.7-8.1799-18.64-22.69-17.21-36.95 1.1201-17.74 15.31-33.4 32.73-36.65z" fill="#FAC458" stroke="#FAC458"/>
	<path d="m806.41 1192.4c2.28-4.2201 7.35-5.0901 11.7-5.3501-2.96 2.05-6.06 4.9401-5.57 8.92 0.46 5.7 6.21 8.45 10.86 10.34-4.35 1.0701-9.1801 0.87-12.91-1.85-3.92-2.3699-6.67-7.7799-4.08-12.06z" fill="#BDBFC1" stroke="#BDBFC1"/>
	<path d="m351.36 1198.5c39.61-2.23 79.41-1.98 118.93 1.63l0.12 0.9301c-10.22-0.24-20.39-1.42-30.61-1.75 6.04 4.7999 12.94 8.37 19.22 12.84 4.07 3.01 8.9 5.13 12.23 9.0599-4.25-1.5499-7.65-4.6299-11.43-7-6.79-4.6-13.74-8.9299-20.55-13.49-2.67-2.0399-6.17-1.6699-9.32-1.83-8.55-0.17-17.11-0.48-25.67-0.2 4.56 5.13 10.14 9.22 15.01 14.05 14.74 13.23 29.01 26.98 43.1 40.9 2.71 2.87 6.36 5.0601 7.95 8.83-6-4.5-10.97-10.2-16.39-15.36-16.64-16.4-33.88-32.19-51.3-47.75-1.22-1.26-3.11-0.95-4.67-1.0499-13.11 0.01-26.22 0.52-39.31 1.1899-5.27 0.48-10.67-0.0499-15.79 1.5-0.34-0.24-1.01-0.73-1.35-0.97 3.19-0.9899 6.51-1.3999 9.83-1.5299z" fill="#BDBFC1" stroke="#BDBFC1"/>
	<path d="m329.07 1201.6c1.55-0.4501 3.1-0.91 4.64-1.4 1.57 0.0499 3.14 0.3199 4.72 0.2999 0.78-0.11 2.33-0.34 3.1-0.45 0.34 0.24 1.01 0.73 1.35 0.97 2.52 1.87 4.99 3.8201 7.31 5.9501-7.34-0.0401-14.36-2.7701-21.12-5.37z" fill="#392113" stroke="#392113"/>
	<path d="m631.36 1201.4c7.21-1.6399 15.25 1.91 18.86 8.3601 3.73 6.38 2.83 14.85-2.06 20.36-3.65 3.74-8.87 6.27-14.19 5.74-8.93-0.38-16.73-8.9-16.18-17.85-0.11-7.76 6.14-14.92 13.57-16.61z" fill="#D2D3D5" stroke="#D2D3D5"/>
	<path d="m702.4 1201.4c10.18-2.6 21.07 6.13 20.9 16.58 0.6 9.1-7.12 17.62-16.25 17.85-9.49 0.95-18.34-7.4401-18.43-16.84-0.39-8.1701 5.74-16.03 13.78-17.59z" fill="#D2D3D5" stroke="#D2D3D5"/>
	<path d="m773.37 1201.4c10.07-2.58 20.96 6.25 20.81 16.55 0.72 9.71-8.46 18.73-18.15 17.92-10.6-0.16-19.2-11.66-15.94-21.83 1.39-6.4398 6.95-11.31 13.28-12.64z" fill="#D2D3D5" stroke="#D2D3D5"/>
	<path d="m838.09 1204.1c3.7-0.6799 7.3199-1.83 10.7-3.52 5.2 1.28 10.41 3.55 13.4 8.2401 4.94 7.0399 3.48 17.68-3.32 23.02-7.97 7.54-22.61 4.16-26.9-5.7999-3.69-7.5101-1.14-17.57 6.12-21.94z" fill="#D2D3D5" stroke="#D2D3D5"/>
	<path d="m285.76 1212.5c14.48-3.47 28.91-7.14 43.31-10.9 6.76 2.6 13.78 5.33 21.12 5.37l0.67 0.1699c0.34 1.88 2.21 2.7001 3.86 3.22 0.24 0.1801 0.71 0.54 0.95 0.7201 1.65 1.5499 3.38 3.01 5.23 4.34 0.2 0.17 0.6 0.51 0.81 0.67 1.93 1.9099 3.99 3.6899 6.2 5.2799 0.21 0.17 0.62 0.52 0.82 0.6901 1.9 1.9199 3.94 3.7 6.1 5.34 0.62 0.54 1.25 1.09 1.88 1.66 2.24 2.2999 4.65 4.41 7.17 6.4 0.84 0.7799 1.71 1.5599 2.58 2.35 3.31 3.5599 6.83 6.9299 10.7 9.88 1.15 1.15 2.34 2.27 3.55 3.37 9.06 9.1 18.14 18.2 27.25 27.25 1.47 1.66 3.01 3.27 4.6 4.84 2.93 3.5601 6.1 6.9301 9.41 10.15 0.55 0.62 1.11 1.25 1.68 1.89 2.24 2.87 4.67 5.58 7.33 8.0699 0.78 1.11 1.55 2.24 2.33 3.39-11.51 16.94-27.47 30.99-46.35 39.13-17.84 8.04-37.87 10.65-57.25 8.39-22.9-2.89-44.82-13.25-61.35-29.4-11.81-11.45-20.89-25.72-26.11-41.32-1.5-4.3301-2.45-8.8-3.54-13.22 4.07-4.7799 6.56-10.62 9.31-16.19 6.35-13.66 12.19-27.55 17.74-41.54m27.56 12.02c-6.24 1.03-11.13 7.15-10.57 13.5 0.16 6.75 6.47 12.6 13.23 12.14 7.32 0.14 13.52-7.0699 12.52-14.27-0.54-7.25-8.08-12.88-15.18-11.37m50.24 18.61c-4.36 12.86-10.73 25.27-12.16 38.95-0.65 5.1599 0.56 11.54 5.67 14.07 4.54 2.05 10.15 1.91 14.53-0.47 4.45-2.64 5.24-8.3201 4.89-13.03-0.92-10.81-5.19-20.91-9.07-30.93-1.22-2.9001-2.01-6.0201-3.86-8.5901m-32.12 68.85c0.97 8.7101 7.6 15.75 15.29 19.35 12.1 5.74 27.38 4.74 38.32-3.13 5.36-3.8101 9.22-9.7001 10.19-16.24-21.26-0.03-42.53-0.04-63.8 0.0199z" fill="#FAC458" stroke="#FAC458"/>
	<path d="m254.09 1219.7c10.6-2.1901 21.15-4.65 31.67-7.2001-5.55 13.99-11.39 27.88-17.74 41.54-2.75 5.5699-5.24 11.41-9.31 16.19-0.42-0.0099-1.25-0.0299-1.66-0.0399-0.44-2.85-0.81-5.7101-1.06-8.5601 1.43-2.6699 0.91-5.72 0.7-8.58-0.36 0.36-1.07 1.1-1.43 1.46-1.18-11.57-1.2-23.2-1.17-34.81z" fill="#3C2515" stroke="#3C2515"/>
	<path d="m961.01 1212.4c1.76 5.02 0.56 10.4 0.79 15.61-0.3 5.7999 1.09 11.79-0.8 17.43-0.72-11-0.76-22.05 0.01-33.04z" fill="#240A00" stroke="#240A00"/>
	<path d="m470.28 1222.2l1.55 0.1801c0.07 7.58 0.27 15.19-0.52 22.75-1.78-0.64-1.09-2.8-1.32-4.17 0.14-6.2601 0.19-12.51 0.29-18.76z" fill="#F2F4F5" stroke="#F2F4F5"/>
	<path d="m313.32 1224.5c7.1-1.51 14.64 4.12 15.18 11.37 1 7.2001-5.2 14.41-12.52 14.27-6.76 0.46-13.07-5.39-13.23-12.14-0.56-6.35 4.33-12.47 10.57-13.5z" fill="#3C2515" stroke="#3C2515"/>
	<path d="m1017.2 1224.3c7.5001-2.27 16 3.7999 16.18 11.65 0.67 6.63-4.6799 13-11.26 13.7-6.65 0.98-13.45-4.11-14.33-10.78-1.21-6.36 3.18-13.01 9.41-14.57z" fill="#3C2515" stroke="#3C2515"/>
	<path d="m1112.4 1224.4c7.63-2.6799 16.6 3.52 16.7 11.62 0.65 6.8401-5.1599 13.33-11.99 13.64-6.22 0.54-12.33-4.08-13.51-10.2-1.52-6.3299 2.6-13.23 8.8-15.06z" fill="#3C2515" stroke="#3C2515"/>
	<path d="m363.56 1243.1c1.85 2.5701 2.64 5.6901 3.86 8.5901 3.88 10.02 8.15 20.12 9.07 30.93 0.35 4.71-0.44 10.39-4.89 13.03-4.38 2.38-9.99 2.52-14.53 0.47-5.11-2.53-6.32-8.91-5.67-14.07 1.43-13.68 7.8-26.09 12.16-38.95z" fill="#F7964A" stroke="#F7964A"/>
	<path d="m1066.9 1245c0.26-0.88 0.75-1.59 1.49-2.13 4.22 12.3 10.24 24.15 12 37.19 0.5399 4.1899 0.53 8.87-1.97 12.5-1.9901 3.1599-5.9801 4.09-9.4501 4.39-4.38 0.2999-9.5699-0.9801-11.74-5.16-2.8199-5.0701-1.8-11.08-0.78-16.48 2.3701-10.46 6.7801-20.28 10.45-30.31z" fill="#F7964A" stroke="#F7964A"/>
	<path d="m961.3 1251.3c0.38-1.14 0.78-2.25 1.21-3.3301 0.22 3.54 1.29 7.38-0.46 10.72-0.27-2.4799-0.58-4.93-0.75-7.39z" fill="#280E01" stroke="#280E01"/>
	<path d="m255.26 1254.5c0.36-0.36 1.07-1.1 1.43-1.46 0.21 2.86 0.73 5.91-0.7 8.58-0.25-2.39-0.53-4.75-0.73-7.12z" fill="#270D02" stroke="#270D02"/>
	<path d="m1239.6 1265.7c15.25 4.8199 32.92-0.4701 43.09-12.77 0.3201 17.26-1.6899 34.62-6.37 51.25-5.1899 18.76-14.46 36.39-27.07 51.23-17.63 20.59-40.9 35.98-65.88 46.17-8.38 4.23-17.36 7.09-26.23 10.11 1.77 14.08 3.11 28.21 4.11 42.36 0.17 2.0599 0.15 4.3099 1.36 6.11-0.91 2.53-0.62 5.24-0.47 7.88 0.71 16 1.2999 32.02 0.74 48.04-0.09 6.84-1.0601 13.68-0.4401 20.52-0.85 2.03-0.7999 4.26-0.98 6.4401-0.71 8.6-1.62 17.18-2.8099 25.73-4.7001-0.02-9.39 0.01-14.07-0.05 0.0901 33.6 0.01 67.19 0.04 100.78 0.09 5.5701 0.04 11.16 0.03 16.74-12.57-0.1899-25.15 0.35-37.72 0.1901-0.7401-9.11-1.5701-18.2-2.1801-27.31-0.4399-0.2899-1.33-0.87-1.78-1.16l1.62 0.4601c-2.36-29.95-4.9-59.88-7.21-89.83-11.46-1.22-22.96 0.4-34.44 0.13-7 0.03-13.99-0.1-20.99 0.1001-1.9099 21.81-3.71 43.63-5.36 65.46-0.25 3.03-0.52 6.08-0.85 9.13 0.59 0.12 1.76 0.37 2.34 0.49-0.5699 0.01-1.71 0.04-2.2799 0.05-1.41 14.13-2.16 28.32-3.53 42.46-12.48 0.17-24.97-0.3-37.44-0.23-0.31-16.51-0.12-33.04-0.13-49.55-0.24-20.88-0.02-41.76-0.11-62.63 0.0099-1.86-0.7401-3.58-1.3-5.28-6.14 0.0901-12.28 0.01-18.41 0.0601-2.63-18.39-3.81-36.98-3.79-55.55 26.81-0.13 53.62-0.0399 80.43-0.0399 13.6 13.16 36.57 14.48 51.66 3.08 14.95-10.46 20.96-31.45 13.91-48.27-6.49-16.95-25.25-27.97-43.22-25.31-7.55 0.97-14.58 4.2699-20.66 8.76-9.45-31.55-19.18-63.03-28.46-94.63 20.19-0.12 40.39-0.04 60.6-0.0601 19.99 0.01 39.99 0 59.99 0.01 2.2201-0.05 4.53 0.05 6.66-0.77 21.26-8.2 42.31-19.81 55.99-38.58 11.22-15 17.04-33.48 18.87-51.97-0.16-0.15-0.48-0.4401-0.63-0.5901 0.6-1.6 1.2001-3.1799 1.77-4.77 3.5402 2.4497 7.4702 4.3297 11.6 5.6098z" fill="#CFC1CE" stroke="#CFC1CE"/>
	<path d="m148.79 1253.4c7.52 8.71 18.68 14.31 30.25 14.48 8.72 0.33 17.42-2.4301 24.6-7.33 1.87 10.49 2.92 21.2 6.53 31.31 2.98 9.75 8.05 18.67 13.75 27.07l0.74 0.77c10.84 13.08 24.81 23.29 40.18 30.43 7.12 3.02 14.11 7.65 22.13 7.27 18.34-0.2001 36.69 0.1 55.03-0.15 3.4-0.17 6.51 1.6799 9.92 1.51 15.92-0.05 31.84-0.09 47.76-0.03-0.09-0.3099-0.25-0.9299-0.33-1.23 0.2-0.3101 0.62-0.9301 0.82-1.23 1.46 0.9 3.08 1.6 4.85 1.48 13.31 0.08 26.64-0.37 39.94 0.09 0.88 1.5801 1.43 3.34 2.29 4.9601 3.84 2.3099 8.28 3.37 12.4 5.1 3.73 1.62 7.42 3.34 11.1 5.08 0.58 12.05 0.57 24.13 1.48 36.16 0.08 3.36 2.28 6.0699 5.15 7.63 1.31 6.15 2.35 13.14 7.5 17.4 2.75 2.3999 6.53 2.58 10 2.8099 0.24 5.39 1.08 11.17 4.77 15.39 2.89 3.55 8.27 4.86 12.35 2.64 5.11-2.5601 7.42-8.61 7.28-14.06-0.33-11.84-1.35-23.65-1.73-35.49 7.85 5.52 12.88 14.05 19.3 21.03l-0.15 0.65c9.7 14.47 16.52 30.8 20.31 47.8 1.32 5.4 1.89 10.95 3.01 16.4 0.72 8.5701 1.72 17.19 0.93 25.8-11.14-12.01-29.68-16.48-44.92-10.2-3.4301 1.3501-6.67 3.1801-9.66 5.3401-1.32-9.04-2.26-18.18-4.79-26.99-4.68-18.03-14.96-34.43-28.85-46.82-0.41 0-1.24-0.01-1.65-0.01l0.29-0.75c-4.96-4.1599-10.31-7.86-15.97-11 1.64 13.1 2.79 26.24 4.08 39.37 2.21 34.53 2.97 69.44-2.43 103.71-6.58 0.0499-13.18-0.3201-19.75 0.24 0.02 22.73 0.12 45.45-0.06 68.18 11.92-0.87 23.6-3.86 35.54-4.59 0.41-0.12 1.22-0.35 1.63-0.47 17.23-2.54 34.56-4.41 51.9-6.11 19.38-2.03 38.81-3.39 58.23-4.9501 0.07 30.92-0.11 61.84 0.09 92.77-4.13 0.0699-8.26 0.0699-12.39 0.13 0.1 13.93 0.05 27.87 0.03 41.81 11.63 0.0199 23.26-0.01 34.89 0.0099-0.0099 1.7101 0 3.4501 0.01 5.2001-2.57-1.17-5.33-1.86-8.08-2.41-2.3 3.0701-4.97 5.84-7.41 8.8-0.74 0.9-1.48 1.8199-2.22 2.76-1.14 0.35-2.08 1.0699-2.95 1.88-1.61 1.48-3.27 2.9099-5.15 4.0499-3.07 1.5601-5.93 3.49-8.78 5.41-2.77 1.17-5.76 1.5-8.67 2.14l-0.93 0.87c-14.94 5.98-31.15 10.97-42.81 22.66-4.85 5.34-9.66 13.1-6.33 20.43-3.88 3.63-7.22 8.8101-6.04 14.37 0.62 3.8 4.05 6.22 7.23 7.92 7.2 3.51 15.23 4.6 23.01 6.13 20.86 3.9 42.72 4.3199 63.23-1.7101 24.49-7.2599 47.36-19.41 72.42-24.83 3.99-0.9 8.88-2.17 10.16-6.64 2.14-8.13 0.47-17.41-4.64-24.13-0.97-7.08-3.59-13.76-5.06-20.71-0.77-3.05-0.19-7.0701-3.2-9.01-2.73-1.88-5.56 0.7-6.95 2.95-0.69-5.36-0.44-10.76-0.34-16.13 13.71-0.0099 27.42-0.0099 41.13 0-0.0099-13.95-0.06-27.9 0.02-41.84-3.97-0.0499-7.95-0.0499-11.91-0.0699 1.14-32.29 2.0699-64.58 3.11-96.86 6.47-0.16 13.01-0.9401 19.42 0.2899 5.13 0.89 10.35 0.3201 15.53 0.4301 4.18-0.13 8.54 0.5599 12.55-1.01 0.52-0.04 1.57-0.13 2.1-0.17 0.96 32.44 2.16 64.88 3.03 97.33-3.92 0.0299-7.85 0.01-11.76 0.0199 0.04 13.96-0.07 27.93 0.05 41.9 13.71-0.0499 27.42-0.02 41.14-0.02 0 5.5601 0.19 11.13-0.28 16.69-1.11-2.14-3.04-4.63-5.77-4.05-2.95 0.63-3.91 3.86-4.06 6.5-0.98 9.11-5.85 17.55-5.28 26.87-0.76-0.25-1.51-0.49-2.25-0.7-2.95 6.85-4.84 14.67-2.6 22.01 1.22 4.26 6.11 5.39 9.87 6.3199 16.96 3.75 33.14 10.21 49.22 16.67 13.27 5.21 26.87 10 41.08 11.8 20.39 2.63 41.03-0.3201 60.86-5.16 5.7-1.6801 12.4-4.0601 14.76-10.06 1.91-5.7899-2.15-11.15-5.75-15.24 1.04-2.5699 1.51-5.4299 0.71-8.11-2.16-7.8199-8.03-13.99-14.59-18.45-11.1-7.5801-23.88-12.12-36.47-16.55 0.34-0.1799 1.03-0.5599 1.37-0.74-3.38-0.4-6.79-0.8099-9.98-2.05-2.69-1.98-5.5-3.7799-8.37-5.48-1.92-1.1799-3.7-2.5599-5.4-4.01-0.85-0.72-1.71-1.4099-2.54-2.09-1.2599-1.13-2.34-2.37-3.41-3.62-2.26-2.49-4.57-4.9399-6.5-7.6899-2.87 0.4299-5.7 1.1399-8.33 2.3999 0-1.7799 0-3.5299 0.01-5.26 11.62 0.02 23.26-0.08 34.89 0.0601 0.12-13.98 0.02-27.96 0.05-41.94-4.08 0-8.15 0-12.22-0.0499 0.24-30.95-0.03-61.9 0.14-92.85 8.7 0.39 17.37 1.2 26.06 1.7999l-0.34-1.4199c1.32 1.38 3.17 1.86 5.05 1.95 24.54 1.98 49.01 4.72 73.45 7.65 11.11 1.34 22.18 2.97 33.25 4.59 0.01 16.51-0.18 33.04 0.13 49.55-17.38 7.4199-34.54 15.32-51.9 22.78-1.01 0.3401-1.84 1.03-2.57 1.78l-0.86 0.8401c11.45 0.75 22.97 0.12 34.45 0.37 18.62-0.13 37.26 0.2 55.87-0.2101l0.39-1.1799c1.04-8.01 1.41-16.1 2.0601-24.15 1.37-14.14 2.12-28.33 3.53-42.46 0.5699-0.01 1.71-0.04 2.2799-0.05 21.76 4.0599 43.46 8.52 64.89 14.06 0.4501 0.29 1.3401 0.8701 1.78 1.16 0.61 9.11 1.4399 18.2 2.1801 27.31 0.6599 8.0399 1.0499 16.11 2.0699 24.12l0.22 1.1899c23.56 0.4501 47.15 0.03 70.72 0.16 6.29-0.1 12.6 0.23 18.9-0.1901l0.26-1.1c-6.5-3.71-13.65-6.14-20.4-9.36-11.36-4.98-22.67-10.09-34.05-15.01 0.01-5.58 0.0599-11.17-0.03-16.74 21.22 6.6 42.17 14.17 62.34 23.52 16.94 7.97 33.51 17.11 47.97 29.1 9.7599 8.24 18.77 17.98 23.65 29.96 4.0901 9.7899 4.3501 21.11 0.7001 31.08-3.49 9.64-9.8401 17.96-17.05 25.13-11.35 11.17-24.86 19.86-38.78 27.47-27.66 14.8-57.34 25.4-87.34 34.36-39.74 11.72-80.36 20.26-121.2 27.09-89.67 14.67-180.56 21.26-271.37 22.08-3.33-1.48-7.02-1.1-10.55-1.14-6.99-0.08-13.98-0.11-20.97-0.03-4.2 0.0601-8.52-0.2999-12.54 1.16-69.27-0.55-138.54-4.8-207.34-13.02-50.66-6.23-101.12-14.64-150.68-26.96-37.09-9.39-73.93-20.64-108.53-37.17-17.83-8.64-35.24-18.7-49.77-32.3-11.28-10.68-21.01-24.73-21.23-40.8-0.2-16.47 9.74-30.98 21.28-41.87 13.06-12.22 28.5-21.59 44.4-29.62 19.15-9.72 39.28-17.37 59.61-24.23-0.08-34.51-0.14-69.03 0.03-103.54-4.72 0.04-9.44 0.03-14.15 0.02-4.93-36.06-5.62-72.65-2.93-108.92 0.81-15.34 2.44-30.61 4.04-45.88 0.43-1.5499-0.28-2.9199-1.86-3.25-15.81-5.4399-31.45-11.66-45.96-20.02-15.83-8.9399-30.49-20.15-42.49-33.85-17.67-20.04-28.95-45.44-32.74-71.83-0.28-2.34-0.97-4.59-1.9-6.72 0.17-0.15 0.5-0.4301 0.66-0.5801-0.58-8.4294-1.43-16.859-1.13-25.309m208.78 316.27c-0.29 0.4099-0.86 1.25-1.14 1.6699l-0.06-1.47c-7.34-0.02-14.7-0.39-22.02 0.1899-0.15 7.4601-1.49 14.86-1.4 22.33l-0.28-0.22c-1.72 23.12-3.75 46.22-5.51 69.35 22.8-6.4 46-11.25 69.2-15.95-0.72-3.49 0.04-7.6499-1.52-10.72 0.2-4.37 1-9.58-1.65-13.32 0.34-0.8501 0.68-1.6801 1.02-2.5-1.65-16.1-2.43-32.29-4.17-48.39 2.17-1.14 4.67-0.99 7.04-1.05 5.94-0.0699 11.89 0.02 17.83-0.0699-19.12-0.3601-38.22 0.6799-57.34 0.15m-124.8 142.04c30.05 0.24 60.12 0.02 90.18 0.11 0.84-7.96 1.22-15.96 2.07-23.9-12.63-0.02-25.29-0.5601-37.91-0.2401-18.19 7.81-36.32 15.83-54.34 24.03m167.05-23.81c0.45 8 1.18 15.99 1.9 23.98 30.1-0.21 60.2 0.0699 90.29-0.14-10.64-5.02-21.52-9.54-32.25-14.38-7.61-3.17-14.98-7.02-22.74-9.77-12.4-0.1-24.8 0.26-37.2 0.31z" fill="#E6E7E8" stroke="#E6E7E8"/>
	<path d="m564.07 1266.7c10.36-0.53 19.08 9.86 17.44 19.94-0.97 8.4401-9.03 15.07-17.44 14.88 0.09-11.61 0.02-23.22 0-34.82z" fill="#D2D3D5" stroke="#D2D3D5"/>
	<path d="m630.28 1267.4c8.81-2.7999 18.98 2.8 21.52 11.63 2.27 6.97-0.59 15.14-6.64 19.25-4.47 3.39-10.59 3.97-15.85 2.36-5.47-2.09-10.1-6.86-11.17-12.73-2.07-8.64 3.47-18.29 12.14-20.51z" fill="#D2D3D5" stroke="#D2D3D5"/>
	<path d="m701.22 1267.4c10.11-3.26 22.14 4.9 22.11 15.69 0.93 9.2699-7.01 18.22-16.33 18.33-8.92 0.8199-17.69-6.4301-18.29-15.41-1.03-8.2301 4.49-16.5 12.51-18.61z" fill="#D2D3D5" stroke="#D2D3D5"/>
	<path d="m772.2 1267.4c9.8-3.17 21.24 4.4301 21.88 14.74 1.55 9.8201-7.11 19.86-17.14 19.3-10.13 0.62-18.9-9.59-17.34-19.48 0.77-6.79 5.9-12.96 12.6-14.56z" fill="#D2D3D5" stroke="#D2D3D5"/>
	<path d="m842.38 1267.5c5.24-1.4299 11.28-0.89 15.65 2.55 7.5 5.2 9.3799 16.59 3.99 23.96-4.54 7.26-15.01 9.6901-22.36 5.42-3.72-2.1901-7.17-5.37-8.3799-9.63-3.3501-8.78 2.1199-19.62 11.1-22.3z" fill="#D2D3D5" stroke="#D2D3D5"/>
	<path d="m471.72 1244.6l-0.4099 0.5601c-1.78-0.64-1.0901-2.8-1.3201-4.17 0.14-6.26 0.1899-12.51 0.29-18.76l1.55 0.1801c-0.3501-7.13-0.66-14.26-1.42-21.35-10.22-0.24-20.39-1.42-30.61-1.75 6.04 4.7999 12.94 8.37 19.22 12.84 4.0701 3.01 8.9 5.13 12.23 9.0599-4.25-1.5499-7.6499-4.6299-11.43-7-6.79-4.6-13.74-8.9299-20.55-13.49-2.67-2.0399-6.17-1.6699-9.32-1.83-8.55-0.17-17.11-0.48-25.67-0.2 4.56 5.13 10.14 9.22 15.01 14.05 14.74 13.23 29.01 26.98 43.1 40.9 2.7101 2.87 6.36 5.0601 7.9501 8.83-6-4.5-10.97-10.2-16.39-15.36-16.64-16.4-33.88-32.19-51.3-47.75-1.22-1.26-3.11-0.95-4.67-1.0499-13.11 0.01-26.22 0.52-39.31 1.1899-5.27 0.48-10.67-0.0499-15.79 1.5 2.52 1.87 4.99 3.8201 7.31 5.9501l0.67 0.1699c0.34 1.88 2.21 2.7001 3.86 3.22 0.24 0.1801 0.71 0.54 0.95 0.7201 1.65 1.5499 3.3799 3.01 5.23 4.34 0.2 0.17 0.6 0.51 0.81 0.67 1.93 1.9099 3.99 3.6899 6.2 5.2799 0.21 0.17 0.62 0.52 0.82 0.6901 1.9 1.9199 3.94 3.7 6.1 5.34 0.62 0.54 1.25 1.09 1.88 1.66 2.24 2.2999 4.65 4.41 7.17 6.4 0.84 0.7799 1.71 1.5599 2.58 2.35 3.31 3.5599 6.83 6.9299 10.7 9.88 1.15 1.15 2.34 2.27 3.55 3.37 9.06 9.1 18.14 18.2 27.25 27.25 1.47 1.66 3.01 3.27 4.6 4.84 2.93 3.5601 6.1 6.9301 9.41 10.15 0.55 0.62 1.11 1.25 1.68 1.89 2.24 2.87 4.67 5.58 7.33 8.0699 0.78 1.11 1.55 2.24 2.33 3.39 6.29-8.99 10.59-19.28 13.34-29.87 1.13-4.42 3.5699-8.46 3.87-13.08 0.38-6.36 1.9099-12.69 1.2-19.08z" fill="#E6E7E8" stroke="#E6E7E8"/>
	<path d="m1037 1311.3c21.08 0.0699 42.17 0.15 63.26-0.04-0.28 7.6901-5.96 14.09-12.24 17.94-13.48 7.97-32.39 6.7799-43.97-4.0701-3.79-3.6501-6.68-8.5-7.05-13.83z" fill="#ED3237" stroke="#ED3237"/>
	<path d="m331.44 1311.9c21.27-0.0599 42.54-0.0499 63.8-0.0199-0.97 6.5399-4.83 12.43-10.19 16.24-10.94 7.87-26.22 8.87-38.32 3.13-7.69-3.6001-14.32-10.64-15.29-19.35z" fill="#ED3237" stroke="#ED3237"/>
	<path d="m564.19 1331.9c3.56 0.6699 7.35 1.24 10.26 3.6 5.69 4.08 8.73 11.72 6.72 18.53-1.01 4.0199-3.81 7.1899-6.53 10.19-3.69 0.3199-8.67-1.39-10.75 2.71 0.23-8.45 0.31-16.92-0.25-25.36 0.34-3.22 0.6-6.45 0.55-9.6699z" fill="#D2D3D5" stroke="#D2D3D5"/>
	<path d="m617.82 1348c0.53-9.8401 11.03-17.57 20.6-15.49 9.95 1.47 16.53 13.03 13.34 22.43-0.98 3.9-3.91 6.8201-6.94 9.28-6.53 0.0601-13.06 0.09-19.59 0-4.98-3.7399-8.1-9.9499-7.41-16.22z" fill="#D2D3D5" stroke="#D2D3D5"/>
	<path d="m691.78 1339.7c4.47-6.75 14.04-9.5399 21.32-5.83 6.88 2.9399 11.2 10.62 10.15 18.03-0.42 5.0399-3.62 9.22-7.39 12.34-6.56 0.08-13.11 0.03-19.66-0.03-7.7499-5.28-10.13-16.93-4.4199-24.51z" fill="#D2D3D5" stroke="#D2D3D5"/>
	<path d="m764.98 1337c5.19-5.3 14.09-6.25 20.42-2.4501 6.72 3.5901 10.3 12 8.35 19.36-0.97 4.1499-3.86 7.45-6.89 10.3-6.56 0.14-13.12 0.09-19.67-0.01-2.24-1.9099-4.64-3.8199-5.88-6.5499-3.43-6.7301-1.87-15.52 3.67-20.65z" fill="#D2D3D5" stroke="#D2D3D5"/>
	<path d="m844.59 1332.5c9.95-2.09 20.39 6.27 20.5 16.43 0.5099 6.0601-2.91 11.5-7.3 15.34-6.82 0.01-13.64 0.08-20.45-0.03-2.88-3.25-5.95-6.6901-6.66-11.13-2.25-9.1999 4.6-19.19 13.91-20.61z" fill="#D2D3D5" stroke="#D2D3D5"/>
	<path d="m975.09 1372.2c1.2-5.1699 2.3199-10.35 3.67-15.47 10.99-0.03 21.98-0.22 32.98-0.02 4.33 0.1001 8.67 0.0801 13.01 0.0901 9.28 31.6 19.01 63.08 28.46 94.63 6.2201 20.56 12.36 41.14 18.66 61.67-6.79 0.1-13.57-0.01-20.35 0.0701-26.81 0-53.62-0.0901-80.43 0.0399-9.82 0.01-19.63 0-29.44 0 3.7599-15.79 7.54-31.58 11.19-47.4 7.56-31.17 14.75-62.43 22.25-93.61z" fill="#3DA3B9" stroke="#3DA3B9"/>
	<path d="m563.89 1367c2.08-4.1 7.06-2.39 10.75-2.71 16.86 0.16 33.73 0.12 50.59 0 6.53 0.09 13.06 0.0601 19.59 0 17.12 0.15 34.25 0.15 51.38-0.02 6.55 0.0601 13.1 0.11 19.66 0.03 17.11 0.08 34.22 0.16 51.33-0.04 6.55 0.1 13.11 0.15 19.67 0.01 16.83 0.16 33.65 0.16 50.48 0.03 6.81 0.11 13.63 0.04 20.45 0.03 5.02 0.0599 10.04 0.13 15.07-0.11 0.12 9.98 0.03 19.96 0.09 29.94-5.26 0.2-10.53 0.05-15.79 0.11-39.56 0.1801-79.11 0.02-118.66 0.09-7.44-0.0299-14.87 0.03-22.3-0.0299-4.35-0.0801-8.69-0.1001-13.03-0.04-39.47 0.12-78.94 0.04-118.41 0.04l-0.68 0.01c-6.65 0.0299-13.3 0.0199-19.94-0.01-0.42-9.1099 0.38-18.23-0.25-27.33z" fill="#BDBFC1" stroke="#BDBFC1"/>
	<path d="m516.49 1390c3.4 5.01 5.58 10.71 8.76 15.85 3.32 5.3099 10.13 7.97 16.19 6.35-1.55 4.77-3.07 9.5499-4.59 14.34-6.42-6.98-11.45-15.51-19.3-21.03-0.29-5.1801-0.64-10.35-1.06-15.51z" fill="#F6F6F7" stroke="#F6F6F7"/>
	<path d="m584.76 1394.3c39.47 0 78.94 0.08 118.41-0.04-2.35 74.6-4.77 149.2-7.16 223.8-1.04 32.28-1.97 64.57-3.11 96.86-35.69-0.14-71.39 0.08-107.08-0.0801-0.44-50.58-0.02-101.18-0.16-151.76 0.06-55.01-0.11-110.03 0.05-165.03-0.11-1.28-0.41-2.49-0.93-3.65l-0.02-0.1z" fill="#5BBBA6" stroke="#5BBBA6"/>
	<path d="m738.5 1394.3c39.55-0.0699 79.1 0.0901 118.66-0.09 0.17 37.16-0.19 74.32 0.15 111.48-0.16 38.77 0.01 77.55-0.08 116.33-0.17 30.95 0.1 61.9-0.14 92.85-36.15-0.03-72.3-0.04-108.45 0.03-0.87-32.45-2.07-64.89-3.03-97.33-2.42-74.42-4.83-148.84-7.11-223.27z" fill="#5BBBA6" stroke="#5BBBA6"/>
	<path d="m584.78 1394.4c0.52 1.16 0.8199 2.37 0.93 3.65-0.16 55 0.0099 110.02-0.05 165.03 0.14 50.58-0.28 101.18 0.16 151.76 35.69 0.16 71.39-0.0599 107.08 0.0801 3.96 0.02 7.94 0.02 11.91 0.0699-0.08 13.94-0.03 27.89-0.02 41.84-13.71-0.0099-27.42-0.0099-41.13 0h-56.5c-11.63-0.0199-23.26 0.01-34.89-0.0099 0.02-13.94 0.07-27.88-0.03-41.81 4.13-0.0601 8.26-0.0601 12.39-0.13-0.2-30.93-0.02-61.85-0.09-92.77-0.0099-49.36-0.0099-98.72-0.02-148.07 0.17-26.55-0.35-53.11 0.26-79.64z" fill="#3BA990" stroke="#3BA990"/>
	<path d="m1073.9 1442.7c17.97-2.66 36.73 8.36 43.22 25.31 7.05 16.82 1.04 37.81-13.91 48.27-15.09 11.4-38.06 10.08-51.66-3.08 6.78-0.0801 13.56 0.0299 20.35-0.0701-6.3-20.53-12.44-41.11-18.66-61.67 6.0799-4.49 13.11-7.7899 20.66-8.7599z" fill="#FAC458" stroke="#FAC458"/>
	<path d="m516.03 1507c15.24-6.2799 33.78-1.8099 44.92 10.2 9.75 10.53 13.49 26.21 9.11 39.93-4.42 14.93-18 26.53-33.44 28.55-17.73 2.73-36.46-7.67-43.18-24.35-7.76-16.76-1.9-38.14 12.93-48.99 2.99-2.16 6.23-3.99 9.66-5.34z" fill="#FAC458" stroke="#FAC458"/>
	<g fill="#FCFCFB" stroke="#FCFCFB">
		<path d="m855.21 540.53c1.71 1.0699 3.4401 2.12 5.24 3.0699 1.1901-2.46 2.24-4.98 3.54-7.39-2.8001 1.7-5.78 3.0501-8.78 4.3201z"/>
		<path d="m897.62 593.93c-5.76-1-11.7-0.24-17.13 1.8501 2.4399 4.3101 4.78 8.6699 6.9399 13.13 3.4401-4.97 6.74-10.03 10.19-14.98z"/>
		<path d="m584.76 1394.3l-0.6799 0.01c-8.0901 32.33-16.13 64.68-24.06 97.05 0.72 8.5701 1.72 17.19 0.9299 25.8 9.75 10.53 13.49 26.21 9.1101 39.93-4.42 14.93-18 26.53-33.44 28.55-3.49 13.79-6.86 27.61-10.31 41.42 19.38-2.03 38.81-3.39 58.23-4.9501-0.01-49.36-0.01-98.72-0.02-148.07 0.1699-26.55-0.3501-53.11 0.26-79.64l-0.02-0.0999z"/>
		<path d="m716.35 1617.6c-0.0199-74.42-0.1-148.84-0.15-223.26-4.35-0.0801-8.6899-0.1001-13.03-0.04-2.3499 74.6-4.7699 149.2-7.1599 223.8 6.47-0.16 13.01-0.9401 19.42 0.2899 5.1301 0.89 10.35 0.3201 15.53 0.4301 4.1801-0.13 8.54 0.5599 12.55-1.01-9.05-0.34-18.11-0.1999-27.16-0.21z"/>
		<path d="m472.73 1438.5c-0.4099 0-1.24-0.01-1.6499-0.01-3.8701 9.2001-8.01 18.3-11.6 27.62 2.2099 34.53 2.9699 69.44-2.4301 103.71-6.58 0.0499-13.18-0.3201-19.75 0.24 0.02 22.73 0.1201 45.45-0.06 68.18 11.92-0.87 23.6-3.86 35.54-4.59 0.4099-0.12 1.22-0.35 1.63-0.47-0.84 0.09-2.5 0.27-3.33 0.35 6.9099-21.5 13.67-43.06 20.56-64.57 0.74-2.5199 1.85-5.0099 1.7999-7.6599-7.76-16.76-1.8999-38.14 12.93-48.99-1.3199-9.04-2.26-18.18-4.7899-26.99-4.68-18.03-14.96-34.43-28.85-46.82z"/>
		<path d="m563.49 1101.2l-0.9199 1.45c-3.8401 28.25-7.78 56.5-11.33 84.79 4.0601-7.85 7.99-15.76 12.02-23.61 1.8101-9.26 0.4399-18.8 0.8201-28.17 0.01-10.16-0.1501-20.32 0.1099-30.47-0.18-1-0.5301-2.99-0.7-3.99z"/>
		<path d="m529.45 1347.9c-0.4299 3.38-1.3999 7.0299 0.4 10.22 5.7001 12.47 10.85 25.21 16.83 37.56 5.54-18.06 11.64-35.96 16.96-54.09 0.34-3.22 0.6-6.45 0.5499-9.6699-0.1899-10.15-0.1599-20.29-0.1199-30.43 0.0898-11.61 0.02-23.22 0-34.82-0.1001-10.16-0.1201-20.31-0.05-30.46 0.02-5.0599 0.1499-10.12-0.39-15.15-8.36 19.09-16.38 38.34-24.54 57.51-3.6902 23.04-6.2601 46.24-9.6402 69.33z"/>
		<path d="m447.25 1362.8c3.84 2.3099 8.28 3.37 12.4 5.1 3.38-6.65 6.86-13.24 10.07-19.97 0.0601-5.3099-0.28-10.59-0.5599-15.88-0.36-5.29 1.2899-10.5 3.9-15.04 1.9099-3.03 1.99-6.67 2.46-10.1 3.78-28.77 7.84-57.51 11.55-86.29-5.1801 7.9399-10.23 15.97-15.35 23.95 0.71 6.39-0.8199 12.72-1.2 19.08-0.3 4.62-2.74 8.6599-3.87 13.08-2.75 10.59-7.05 20.88-13.34 29.87-11.51 16.94-27.47 30.99-46.35 39.13-2.24 3.52-4.48 7.05-6.79 10.54 1.46 0.9 3.08 1.6 4.85 1.48 13.31 0.08 26.64-0.37 39.94 0.09 0.8801 1.5799 1.4301 3.3397 2.2901 4.9599z"/>
		<path d="m457.44 1160.4c0.17 0.3101 0.49 0.9401 0.65 1.25 4.5899 7.2101 7.7601 15.23 10.06 23.43 0.98 2.1599 1.85 4.36 2.6801 6.59 8.2899-10.96 16.5-21.98 24.66-33.04 3.0801-22.47 6.0801-44.94 9.14-67.41-18.24 19.83-36.66 39.48-54.86 59.34 2.99 2.25 5.31 5.22 6.98 8.5599 0.17 0.3199 0.52 0.9599 0.69 1.2799z"/>
		<path d="m347.1 1357.5c0.87-1.14 1.74-2.27 2.61-3.38-22.9-2.89-44.82-13.25-61.35-29.4-7.84 8.46-15.69 16.93-23.52 25.41 7.12 3.02 14.11 7.65 22.13 7.27 18.34-0.2001 36.69 0.1 55.03-0.15 3.4-0.17 6.51 1.6799 9.92 1.51 15.92-0.05 31.84-0.09 47.76-0.03-0.09-0.3099-0.25-0.9299-0.33-1.23-17.42-0.0701-34.83-0.0701-52.25 0z"/>
		<path d="m272.35 1411.7c-15.81-5.4399-31.45-11.66-45.96-20.02-14.84 15.82-29.41 31.89-44.3 47.66 18.15 22.13 36.43 44.15 54.81 66.09 11.04-14.91 22.12-29.78 33.27-44.6 0.81-15.34 2.4399-30.61 4.04-45.88 0.43-1.55-0.28-2.92-1.86-3.25z"/>
		<path d="m365.86 1120.2l-0.22 0.87c11.3-0.09 22.63-0.38 33.92 0.16 3.1 0.0599 5.96 1.35 8.7 2.6799 5.94 2.4401 12.07 4.5801 17.63 7.8501 26.28-24.14 52.32-48.54 78.6-72.68 0.71-1.39 1.04-2.92 1.15-4.45 0.62-9.26 2.3099-18.41 2.9401-27.67 0.1299-4.36 2.7799-8.43 1.8199-12.82-48.26 35.24-96.36 70.71-144.54 106.06z"/>
		<path d="m254.39 1202.2c-11.2 7.99-22.2 16.27-33.33 24.37 0.25 13.31-6.57 26.32-17.42 33.97 1.87 10.49 2.92 21.2 6.53 31.31 2.98 9.75 8.05 18.67 13.75 27.07l0.7401 0.77c-0.05-0.2999-0.16-0.9099-0.22-1.21 12.59-11.71 25.28-23.32 37.81-35.09-1.5-4.3301-2.45-8.8-3.54-13.22-0.42-0.0099-1.25-0.0299-1.66-0.0399-0.44-2.85-0.81-5.7101-1.06-8.5601-0.25-2.39-0.53-4.75-0.73-7.12-1.18-11.57-1.2-23.2-1.17-34.81-0.9101-5.84 0.6599-11.63 0.2999-17.44z"/>
		<path d="m183.9 1357.8c-17.67-20.04-28.95-45.44-32.74-71.83-0.28-2.34-0.97-4.59-1.9-6.72-15.07 11.24-30.38 22.17-45.4 33.49 14.73 25.54 29.22 51.23 43.87 76.82 11.74-10.94 23.53-21.83 35.3-32.74l0.87 0.9801z"/>
		<path d="m838.2 412.35v-1e-4c18.93-69.91 38.08-139.76 56.88-209.7 14.64-53.22 28.96-106.52 43.48-159.77-24.92-8.0699-49.87-16.05-74.76-24.19-11.26 63.67-22.37 127.37-33.53 191.06-11.08 63.05-22.17 126.09-33.13 189.15-5.25 29.11-10.2 58.28-15.39 87.4 11.65 3.3899 21.21 11.07 31.88 16.5 8.2-30.14 16.39-60.3 24.57-90.45z"/>
		<path d="m965.56 1403c-0.26 4.87 0.03 11.38-5.41 13.55-1.4601 6.02-2.3099 12.88-7.2201 17.24-2.8899 2.7001-7 2.9-10.71 3.36 0.1101 0.7301 0.22 1.49 0.3501 2.27 3.1699 8.87 6.7999 17.58 10.27 26.34 7.5599-31.17 14.75-62.43 22.25-93.61-2.4901-5.22-5.26-10.29-7.77-15.49-0.6801 15.45-1.2001 30.89-1.76 46.34z"/>
		<path d="m1085.4 1356.7c-0.9-1.12-1.7999-2.25-2.6699-3.34-23.25 2.96-47.44-1.65-67.74-13.43-9.23-5.14-17.27-12.06-24.79-19.4 7.09 12.11 14.45 24.06 21.59 36.14 4.3301 0.1001 8.6699 0.0801 13.01 0.0901 20.19-0.1199 40.39-0.04 60.6-0.06z"/>
		<path d="m962.72 1193.1c-6.58-8.5701-12.92-17.34-19.52-25.89 4.0601 32.28 8.5901 64.51 12.96 96.76 3.8501 6.73 7.9601 13.3 11.92 19.97-1.3201-4.48-2.4501-9-3.6801-13.49-2.42-3.36-1.7301-7.86-2.35-11.75-0.27-2.48-0.5801-4.9301-0.75-7.39-0.16-1.9501-0.28-3.9-0.3-5.8201-0.72-11-0.76-22.05 0.01-33.04 0.06-6.4901 1.0199-12.92 1.7099-19.35z"/>
		<path d="m873.74 1264.7c11.3 29.29 22.89 58.47 34.45 87.66-0.6099-10.16-2.6199-20.17-3.76-30.27-5.4399-40.19-10.77-80.39-16.27-120.58-4.5099-8.74-8.9199-17.53-13.47-26.24-1.01 1.37-1.78 2.9399-1.6599 4.71-0.1801 18.34 0.05 36.68-0.0901 55.01 0.34 9.9-0.81 19.9 0.8 29.71z"/>
		<path d="m933.97 1064.6c-1.5 0.12-3.01 0.2799-4.48 0.5299 1.91 17.23 4.52 34.39 6.77 51.58 12.77 14.74 25.59 29.44 38.41 44.15 7.75-12.41 19.1-22.34 31.97-29.18-24.23-22.35-48.53-44.62-72.67-67.08z"/>
		<path d="m810.71 7.6699c-25.74-2.4199-51.48-4.8598-77.21-7.3298-1.72 87.43-3.75 174.85-5.29 262.28-1.04 35.56-1.5 71.15-2.3199 106.72-0.65 30.46-1.3099 60.92-1.87 91.39 5 8.5801 4.29 18.95 2.0701 28.26 10.16-3.97 20.97-6.37 31.91-6.45 3.04-27.69 6.1899-55.36 9.1799-83.05 6.3201-56.64 12.67-113.26 18.84-169.91 8.3299-73.96 16.46-147.94 24.69-221.91z"/>
		<path d="m690.03 249.36c-3.41-82.74-6.89-165.47-10.34-248.2-25.68 3.1901-51.35 6.53-77.03 9.7001 10.4 78.23 20.71 156.47 31.15 234.69 10.49 79.64 21.05 159.28 31.67 238.9 11.55-1.9099 23.03-4.54 33.98-8.74-3.06-75.46-6.24-150.91-9.43-226.35z"/>
		<path d="m546 288.44c20.07 68.03 40.12 136.06 60.25 204.07 11.26-3.47 23.07-4.0601 34.74-4.99 0.05-0.55 0.16-1.65 0.21-2.2-14-69.27-27.41-138.66-41.2-207.97-7.71-38.94-15.32-77.89-23.09-116.81-8.9099-45.68-18.11-91.3-26.95-136.99-24.84 8.6299-49.53 17.66-74.32 26.42 14.04 47.8 28.2 95.56 42.28 143.35 9.3601 31.71 18.71 63.42 28.08 95.12z"/>
		<path d="m518.93 454.02c12.84 26.71 25.65 53.44 38.53 80.13 0.8-0.36 1.5901-0.7201 2.39-1.08 4.4301-12.16 12.7-22.89 23.46-30.11-8.1401-21.8-16-43.71-24.16-65.5-27.08-73.99-54.33-147.91-81.48-221.88-17.38-47.18-34.67-94.4-52.05-141.58-23.04 14.01-45.93 28.26-68.99 42.24 19.58 41.06 39.41 82.01 59.07 123.04 34.41 71.58 68.82 143.16 103.23 214.74z"/>
		<path d="m459.8 503.37c18.23 25.67 36.48 51.33 54.73 76.99 6.8-10.27 15.4-19.29 25.04-26.94-0.78-1.49-1.5801-2.96-2.3701-4.4299-7.77-2-13.56-8.6599-14.88-16.52 2.6599 1.6899 5.3398 3.4 8.2999 4.54-12.41-20.81-24-42.14-36.11-63.14-37.08-65.21-74.02-130.5-111.18-195.66-24.05-42.42-48.02-84.91-72.31-127.18-20.58 18.77-40.96 37.79-61.43 56.7 27.9 39.03 55.61 78.19 83.43 117.27 42.25 59.47 84.52 118.91 126.78 178.37z"/>
		<path d="m927.15 469.88c-13.95 25.98-27.9 51.97-41.89 77.93 6.73-1.3 12.71-4.8201 18.14-8.8801-5.41 11.87-13.71 23.1-25.81 28.74 9.49 4.6401 18.28 11.16 24.18 20.06 21.66-32.12 43.36-64.22 65.02-96.34-0.1089-0.1875-0.2617-0.451-0.4214-0.726 0.1597 0.2749 0.3126 0.5385 0.4214 0.726 38.54-57.09 77.09-114.17 115.61-171.26 28.49-42.14 56.86-84.36 85.42-126.44-20.86-18.34-41.73-36.69-62.72-54.88-28.15 52.45-56.35 104.88-84.54 157.31-31.14 57.92-62.25 115.85-93.41 173.76z"/>
		<path d="m835.67 512.94c11.03 4.3701 22.39 7.91 34.01 10.34 26.78-58.91 53.45-117.88 80.13-176.84 23.46-51.7 46.86-103.44 70.3-155.16 12.97-28.53 25.76-57.14 38.85-85.6-23.24-13.56-46.62-26.88-69.96-40.28-11.52 33.76-23.12 67.49-34.66 101.23-19.13 55.78-38.2 111.57-57.34 167.34-20.44 59.66-40.83 119.33-61.33 178.97z"/>
		<path d="m392.38 548.74c38.52 37.63 77.18 75.14 115.78 112.69 1.11-11.46 3.1801-22.81 5.88-34-4.72 1.9401-8.6899 5.26-12.06 9.03-0.75 0.8301-1.5 1.66-2.23 2.51-0.24-5.49-0.35-10.99 0.22-16.46 0.28-5.64 1.4-11.21 2.92-16.64-27.17-32.81-54.28-65.68-81.44-98.5-40.69-49.22-81.37-98.45-122.06-147.67-29.81-35.98-59.49-72.08-89.36-108.02-17.24 23.13-34.52 46.24-51.81 69.33 31.79 30.81 63.45 61.76 95.23 92.59 46.29 45.06 92.56 90.15 138.93 135.14z"/>
		<path d="m979.14 527.99c-27.35 34.74-54.56 69.59-81.99 104.26 4.0699 11.78 7.0399 23.95 8.67 36.32 33.75-34.63 67.6-69.15 101.28-103.84 54.21-55.39 108.29-110.91 162.44-166.36 30.68-31.42 61.34-62.88 92.04-94.28-17.88-22.49-35.53-45.16-53.38-67.68-34.16 43.59-68.43 87.09-102.6 130.66-42.19 53.62-84.3 107.29-126.46 160.92z"/>
		<path d="m1010.3 604.79c-34.34 30.08-68.69 60.15-102.91 90.36-0.13 7.61-0.7201 15.21-1.63 22.76 3.6499 1.75 6.98 4.1501 9.77 7.1001 43.99-30.37 87.92-60.83 131.88-91.25 45.85-31.74 91.7-63.46 137.54-95.2 50.67-35.13 101.45-70.11 152.06-105.33-14.17-25.98-28.13-52.07-42.15-78.14-52.84 46.18-105.49 92.57-158.27 138.82-42.09 36.96-84.23 73.88-126.29 110.88z"/>
		<path d="m426.62 674.89c27.91 18.16 55.75 36.45 83.72 54.51l0.98 0.6c-2.51-13.25-4.16-26.69-4.29-40.18-20.24-16.9-40.52-33.73-60.79-50.59-57.25-47.6-114.47-95.25-171.74-142.81-49.5-41.18-98.98-82.37-148.52-123.49-13.47 26.49-26.86 53.04-40.48 79.45 51.12 33.48 102.35 66.77 153.52 100.16 62.52 40.81 125.07 81.56 187.6 122.35z"/>
		<path d="m281.3 694.1c49.49 19.32 98.99 38.57 148.48 57.87 27.27 10.6 54.5 21.31 81.81 31.82-2.02-9.5099-1.4102-20.02 4.45-28.13-23.07-12.46-46.12-24.96-69.24-37.31-49.5-26.82-99.09-53.47-148.63-80.22-40.18-21.59-80.26-43.39-120.49-64.89-38.57-21.01-77.33-41.68-115.92-62.65-9.3 29.03-18.63 58.06-27.74 87.16 39.42 15.37 78.85 30.72 118.27 46.08 43 16.77 86.01 33.52 129.01 50.27z"/>
		<path d="m1031.4 681.34c-35.83 20.61-71.62 41.29-107.44 61.92 1.25 10.23-3.08 21.09-11.56 27.11-7.87 5.95-18.71 6.41-27.73 3.01-2.12 7.22-4.67 14.29-7.2001 21.37 61.42-25.85 122.75-51.95 184.11-77.95 58.89-24.92 117.77-49.88 176.65-74.84 51.14-21.64 102.24-43.37 153.4-64.95-9.79-28.78-19.76-57.5-29.59-86.26-53.75 30.94-107.46 61.93-161.18 92.91-56.5 32.54-112.98 65.11-169.46 97.68z"/>
		<path d="m1024.2 763.3c-51.99 16.74-103.96 33.57-155.86 50.58-4.24 8.17-9.11 16.01-14.49 23.48 64.19-12.09 128.39-24.08 192.56-36.26 69.63-13.03 139.25-26.14 208.86-39.29 56.12-10.49 112.2-21.12 168.32-31.62-5.37-30.41-10.72-60.83-16.09-91.24-58.66 18.91-117.25 38.02-175.88 57-69.14 22.46-138.32 44.78-207.42 67.35z"/>
		<path d="m292.49 796.91c49.12 7.79 98.26 15.47 147.41 23.14 48.65 7.67 97.31 15.4 146 22.86-5.5-7.59-12.01-14.43-17.06-22.37-35.65-10.52-71.33-20.93-107.04-31.24-50.45-14.85-100.94-29.51-151.42-44.24-48.41-14.16-96.85-28.25-145.26-42.41-48.58-14.17-97.19-28.27-145.73-42.58-4.9101 30.53-9.3901 61.14-14.22 91.68 49.05 7.92 98.16 15.51 147.26 23.16 46.67 7.44 93.36 14.72 140.06 22z"/>
		<path d="m1042.4 831.94c-62.71 5.85-125.39 12.07-188.09 18.02-3.9601 0.53-8.04 0.39-11.88 1.55-5.0599 5.47-10.37 10.73-16.04 15.59 86.08 3.02 172.16 5.98 258.24 8.83 41.25 1.48 82.5 2.93 123.76 4.24 74.5 2.62 149.01 5.15 223.51 7.66-0.7001-31.08-1.27-62.18-2.1101-93.26-74.03 7.18-148.07 14.19-222.1 21.44-55.1 5.21-110.21 10.5-165.29 15.93z"/>
		<path d="m303.6 889.95c44.13-2.53 88.22-5.71 132.34-8.44 22.53-1.55 45.08-2.82 67.61-4.46 37.7-2.3 75.39-4.81 113.07-7.32-5.5699-4.8-11.66-8.95-17.01-14.01-53.65-3.47-107.28-7.15-160.93-10.47-47.71-3.3-95.44-6.31-143.16-9.46-55.32-3.56-110.62-7.41-165.96-10.78-43.17-3.01-86.37-5.81-129.56-8.51v93.04c43.85-2.36 87.66-5.6 131.5-8.32 57.37-3.77 114.75-7.27 172.1-11.27z"/>
		<path d="m429.55 926.38c-33.96 7.52-67.97 14.85-101.89 22.53-41.38 8.94-82.7 18.16-124.04 27.28-39.29 8.59-78.56 17.31-117.84 25.93-24.99 5.57-50.02 10.96-74.99 16.58 6.18 30.21 12.06 60.47 18.11 90.7 30.1-10.83 60.22-21.58 90.33-32.38 31.68-11.33 63.36-22.69 95.03-34.04 42.86-15.39 85.77-30.62 128.58-46.12 38.34-13.59 76.62-27.38 114.91-41.14 52.79-18.81 105.54-37.74 158.29-56.7 8.0699-5.79 16.87-10.52 26-14.42-2.27-1.13-4.5-2.31-6.71-3.52-68.61 15.02-137.19 30.18-205.78 45.3z"/>
		<path d="m1160.6 919.05c-61.22-7.72-122.46-15.34-183.69-23.01-53.97-6.81-107.96-13.5-161.94-20.29-4.71 3.45-9.9 6.15-14.72 9.44 59.01 15.45 118.09 30.64 177.15 45.91 57.97 15.01 115.91 30.13 173.92 44.98 38.4 10.1 76.87 19.93 115.3 29.92 49.86 12.9 99.71 25.81 149.57 38.72 4.0601-30.71 8.04-61.44 12.16-92.14-49.03-6.19-98.08-12.31-147.12-18.43-40.2-5.07-80.41-10.1-120.63-15.1z"/>
		<path d="m536.86 945.44c-48.47 22.27-96.96 44.51-145.42 66.79-48.8 22.43-97.62 44.79-146.39 67.26-33.21 15.19-66.39 30.46-99.57 45.7-33.12 15.2-66.22 30.42-99.34 45.61 10.47 28.41 21 56.81 31.45 85.23 20.96-12.81 41.89-25.69 62.77-38.63 2.82-12 11.38-22.45 22.59-27.56 8.22-3.9099 17.7-4.7 26.55-2.76 0.53-0.2999 1.58-0.89 2.11-1.1899 29.94-18.38 59.85-36.8 89.75-55.23 45.27-27.78 90.45-55.69 135.71-83.49 34.16-21.16 68.56-41.97 102.6-63.33 4.9001-13.02 11.09-25.69 20.03-36.45-0.9599-0.6601-1.8999-1.3101-2.8399-1.9501z"/>
		<path d="m1133.5 1011.8c-44.62-15.97-89.31-31.77-133.97-47.64-60.73-21.62-121.48-43.19-182.23-64.76 8.4299 8.42 16.25 17.55 22 28.06 0.11-1.16 0.24-2.3 0.3699-3.44 17.55-0.53 36.29 3.64 49.64 15.68 4.27 4.38 8.98 8.42 12.39 13.55 1.29 1.81 2.6101 3.62 3.92 5.44 26.74 13.51 53.56 26.88 80.33 40.36 47.66 23.92 95.31 47.88 142.97 71.82 28.05 14.04 56.09 28.13 84.12 42.22 54.7 27.41 109.34 54.95 164.04 82.37 8.5801-29.33 17.24-58.63 25.85-87.95-59.65-21.17-119.25-42.48-178.95-63.53-30.11-10.86-60.3-21.51-90.48-32.18zm-138.09-42.439c0.3458-0.9095 0.7281-1.8076 1.157-2.6913-0.4288 0.8837-0.8111 1.7818-1.157 2.6913z"/>
		<path d="m1174.4 1187.4c2.09 12.91 3.0699 25.99 3.1799 39.07 16.16 12.84 32.49 25.47 48.64 38.34 0.6-1.6 1.2001-3.1799 1.77-4.77-11.7-8.1799-18.64-22.69-17.21-36.95 1.12-17.74 15.31-33.4 32.73-36.65-27.19-16.75-54.48-33.33-81.68-50.06-41.43-25.33-82.82-50.69-124.23-76.03-38.97-23.86-77.93-47.71-116.9-71.55-1.1699 5.42 1.77 10.48 2.6301 15.73 2.24 8.59 3.6099 17.36 5.1599 26.09 29.07 22.98 58.24 45.82 87.36 68.74 8.8201 7.04 17.87 13.82 26.55 21.05 2.39 1.0801 5.0699 0.8 7.65 0.8401 16.98-0.0801 33.97 0.02 50.95-0.0601 5.29-0.1799 10.2 2.1 15.13 3.6801 10.9 3.89 21.26 9.4 30.27 16.69 14.13 11.58 23.95 28.07 28 45.84z"/>
		<path d="m1282.7 1252.9c0.3201 17.26-1.6899 34.62-6.37 51.25 13.16 10.29 26.23 20.7 39.43 30.95 12.94-26.87 25.7-53.82 38.75-80.63-21.15-13.18-42.47-26.06-63.71-39.08 3.57 12.86 0.56 27.31-8.1001 37.51z"/>
		<path d="m1208 1317.4c-12.73-11.8-25.53-23.52-38.25-35.32-7.1799 22.29-22.37 41.77-41.93 54.59 5.84 6.7 11.62 13.44 17.53 20.08 2.2201-0.05 4.53 0.05 6.66-0.77 21.26-8.2 42.31-19.81 55.99-38.58z"/>
		<path d="m1183.4 1401.6c0.95 0.2999 1.75 0.85 2.4 1.6399 16.11 18.65 32.4 37.14 48.49 55.8 16.87-23.6 33.57-47.32 50.39-70.96-11.84-10.84-23.64-21.73-35.4-32.65-17.63 20.59-40.9 35.98-65.88 46.17z"/>
		<path d="m873.85 1358.3c-0.7699 1.8501-1.0399 3.8401-0.99 5.8501 0.12 9.98 0.03 19.96 0.09 29.94-5.26 0.2-10.53 0.05-15.79 0.11 0.1702 37.16-0.1899 74.32 0.1501 111.48 1.22 5.9401 2.52 11.86 3.8599 17.78 7.2301 32.98 14.53 65.95 21.78 98.93 1.3201 1.38 3.17 1.86 5.05 1.95 24.54 1.98 49.01 4.72 73.45 7.65-14.16-44.1-28.22-88.23-42.33-132.35-15.11-47.11-30.06-94.27-45.27-141.34z"/>
		<path d="m1162.1 1468c0.71 16 1.2999 32.02 0.74 48.04-0.09 6.84-1.0601 13.68-0.4401 20.52 11.14-10.77 22.26-21.56 33.32-32.41-11.15-14.6-21.95-29.47-33.15-44.03-0.91 2.53-0.62 5.24-0.47 7.88z"/>
		<path d="m1097.4 1568.6c-11.46-1.22-22.96 0.4-34.44 0.13-7 0.03-13.99-0.1-20.99 0.1001-1.9099 21.81-3.71 43.63-5.36 65.46 18.08-11.71 36.03-23.63 54.14-35.3-5.0499-10.14-10.25-20.21-15.42-30.29 7.35-0.0701 14.71 0.0999 22.07-0.1002z"/>
		<path d="m334.35 1570.1c-0.15 7.4601-1.4901 14.86-1.4 22.33 3.02 2.49 6.01 5.01 9.07 7.47 4.75-9.53 9.64-19 14.41-28.52l-0.06-1.47c-7.34-0.02-14.7-0.39-22.02 0.1899z"/>
		<path d="m388.95 1631.7c1.97 1.0399 3.95 2.0599 5.89 3.2 0.2-4.37 1-9.58-1.65-13.32-1.43 3.3599-2.9 6.7099-4.24 10.12z"/>
	</g>
	<path d="m942.93 1708.9c17.36-7.46 34.52-15.36 51.9-22.78 12.47-0.0701 24.96 0.4 37.44 0.23-0.65 8.0499-1.02 16.14-2.0601 24.15-27.05-0.16-54.11 0-81.16-0.0801-2.91-0.0299-5.81-0.02-8.69 0.26 0.7301-0.7499 1.5601-1.4399 2.5701-1.78z" fill="#3DA3B9" stroke="#3DA3B9"/>
	<path d="m1106.9 1686.4c12.57 0.1599 25.15-0.38 37.72-0.1901 11.38 4.92 22.69 10.03 34.05 15.01 6.75 3.22 13.9 5.65 20.4 9.36-30.03-0.22-60.07-0.11-90.1-0.0599-1.02-8.01-1.41-16.08-2.0699-24.12z" fill="#3DA3B9" stroke="#3DA3B9"/>
	<path d="m232.77 1711.7c18.02-8.2 36.15-16.22 54.34-24.03 12.62-0.3199 25.28 0.2201 37.91 0.2401-0.85 7.9399-1.23 15.94-2.07 23.9-30.06-0.09-60.13 0.13-90.18-0.11z" fill="#3DA3B9" stroke="#3DA3B9"/>
	<path d="m399.82 1687.9c12.4-0.05 24.8-0.41 37.2-0.3101 7.76 2.75 15.13 6.6 22.74 9.77 10.73 4.84 21.61 9.36 32.25 14.38-30.09 0.21-60.19-0.0699-90.29 0.14-0.72-7.9899-1.45-15.98-1.9-23.98z" fill="#3DA3B9" stroke="#3DA3B9"/>
	<path d="m940.36 1710.7c2.88-0.28 5.78-0.2899 8.69-0.26 27.05 0.0801 54.11-0.08 81.16 0.0801l-0.39 1.1799c-18.61 0.41-37.25 0.0801-55.87 0.2101-11.48-0.25-23 0.38-34.45-0.37l0.8599-0.8401z" fill="#FFF0EF" stroke="#FFF0EF"/>
	<path d="m1109 1710.5c30.03-0.05 60.07-0.16 90.1 0.0599l-0.26 1.1c-6.2999 0.42-12.61 0.0901-18.9 0.1901-23.57-0.13-47.16 0.29-70.72-0.16l-0.22-1.19z" fill="#FFF0EF" stroke="#FFF0EF"/>
	<path d="m736.88 1714.9c3.91-0.0099 7.84 0.01 11.76-0.0199 36.15-0.0701 72.3-0.0601 108.45-0.03 4.0699 0.0499 8.14 0.0499 12.22 0.0499-0.03 13.98 0.07 27.96-0.05 41.94-11.63-0.14-23.27-0.04-34.89-0.0601h-56.3c-13.72 0-27.43-0.0299-41.14 0.02-0.12-13.97-0.01-27.94-0.05-41.9z" fill="#3BA990" stroke="#3BA990"/>
	<path d="m607.16 1756.8h56.5c-0.1 5.37-0.35 10.77 0.34 16.13-0.39 1.4501-0.66 3.0701-1.78 4.2001-4.33 4.91-10.47 9.12-17.31 8.5-7.04-0.59-12.95-5-17.95-9.65-6.09-5.3199-12.45-10.48-19.79-13.98-0.01-1.75-0.02-3.49-0.01-5.2001z" fill="#F8B57E" stroke="#F8B57E"/>
	<path d="m778.07 1756.8h56.3c-0.01 1.7301-0.01 3.4801-0.01 5.26-8.53 4.0801-15.69 10.4-22.74 16.59-4.89 4.14-11.11 7.5199-17.71 6.95-5.69-0.52-10.52-4.14-14.28-8.1899-1.09-1.0601-1.44-2.5601-1.84-3.92 0.47-5.5601 0.28-11.13 0.28-16.69z" fill="#F8B57E" stroke="#F8B57E"/>
	<path d="m591.68 1768.4c2.44-2.9601 5.11-5.73 7.41-8.8 2.75 0.55 5.5099 1.24 8.08 2.41 7.34 3.5 13.7 8.66 19.79 13.98 5 4.65 10.91 9.0601 17.95 9.65 6.84 0.62 12.98-3.59 17.31-8.5 1.1201-1.13 1.39-2.75 1.78-4.2001 1.39-2.25 4.22-4.83 6.95-2.95 3.01 1.9399 2.43 5.96 3.2 9.01 1.47 6.95 4.09 13.63 5.06 20.71-0.27 3.41-1.18 7.35-4.53 9.03-20.25 11.42-42.26 19.37-64.58 25.66-11.48 4.1599-23.33 7.7899-35.59 8.58-4.32-1.5599-8.95-0.73-13.43-0.95-2.26-0.15-4.49 0.25-6.62 0.96-8.8-0.55-17.43-2.77-25.73-5.65-5.43-1.9299-11.17-4.09-14.89-8.74-3.33-7.33 1.48-15.09 6.33-20.43 11.66-11.69 27.87-16.68 42.81-22.66 4.87 0.0699 9.65 1.1799 14.49 1.74-0.0699 4.11-0.0699 8.22-0.09 12.35 2.04-0.01 4.08 0.01 6.13 0.04 0-4.0601-0.01-8.11-0.03-12.15 3.25 0.88 6.51 1.74 9.77 2.62 0.06-3.5 0.14-7 0.26-10.48 4.72-0.7001 9.44-1.39 14.16-2.0601-5.17-3.3199-10.62-6.1899-15.99-9.1699z" fill="#555" stroke="#555"/>
	<path d="m834.36 1762.1c2.63-1.26 5.46-1.97 8.33-2.3999 1.93 2.75 4.24 5.2 6.5 7.6899-0.07 0.45-0.22 1.36-0.3 1.8101-5.1 2.5199-10.1 5.2899-14.85 8.4199 4.71 0.65 9.43 1.29 14.12 2.14 0.02 3.46 0.1 6.9401 0.27 10.42 3.18-0.66 6.35-2.4 9.59-2.2101 0.22 3.8501 0.01 7.7301-0.01 11.61 2.05 0.0199 4.12 0.0499 6.19 0.11-0.01-4.16-0.01-8.3-0.03-12.44 4.44-0.62 8.91-1.16 13.35-1.87 12.59 4.4301 25.37 8.97 36.47 16.55 6.56 4.46 12.43 10.63 14.59 18.45 0.8 2.6801 0.33 5.54-0.71 8.11-4.68 5.91-12.29 7.92-19.1 10.27-23.18 7.48-48.64 5.9-71.39-2.3-6.66-2.5599-13.61-4.1599-20.37-6.3899-17.27-5.54-34.2-12.38-50.02-21.28-2.31-1.2001-3.53-3.59-4.31-5.9401-0.57-9.3199 4.3-17.76 5.28-26.87 0.15-2.64 1.11-5.87 4.06-6.5 2.73-0.58 4.66 1.91 5.77 4.05 0.4 1.36 0.75 2.86 1.84 3.92 3.76 4.0499 8.59 7.6699 14.28 8.1899 6.6 0.5699 12.82-2.8099 17.71-6.95 7.05-6.1898 14.21-12.51 22.74-16.59z" fill="#555" stroke="#555"/>
	<path d="m849.19 1767.4c1.07 1.25 2.15 2.49 3.41 3.62-2.9 1.63-5.88 3.12-8.74 4.84 3.77-0.85 7.48-1.98 11.28-2.75 1.7 1.4501 3.48 2.8301 5.4 4.01-2.82 0.78-5.64 1.54-8.48 2.24 0.18 1.39 0.37 2.8101 0.58 4.24 5.41-0.4099 10.83-0.95 16.27-1 3.19 1.2401 6.6 1.65 9.98 2.05-0.34 0.1801-1.03 0.5601-1.37 0.74-4.44 0.71-8.91 1.25-13.35 1.87 0.02 4.14 0.02 8.28 0.03 12.44-2.07-0.0601-4.14-0.0901-6.19-0.11 0.02-3.88 0.23-7.76 0.01-11.61-3.24-0.1899-6.41 1.55-9.59 2.2101-0.17-3.48-0.25-6.9601-0.27-10.42-4.69-0.85-9.41-1.49-14.12-2.14 4.75-3.13 9.75-5.9 14.85-8.4199 0.08-0.4502 0.23-1.3603 0.3-1.8102z" fill="#FDFDFD" stroke="#FDFDFD"/>
	<path d="m589.46 1771.2c0.74-0.9401 1.48-1.86 2.22-2.76 5.37 2.98 10.82 5.85 15.99 9.1699-4.72 0.67-9.44 1.36-14.16 2.0601-0.12 3.48-0.2 6.98-0.26 10.48-3.26-0.88-6.52-1.74-9.77-2.62 0.02 4.04 0.03 8.09 0.03 12.15-2.05-0.03-4.09-0.05-6.13-0.04 0.02-4.13 0.02-8.24 0.09-12.35-4.84-0.5601-9.62-1.67-14.49-1.74l0.93-0.87c2.91-0.64 5.9-0.97 8.67-2.14 5.49 0.13 10.97 0.66 16.45 1.04 0.14-1.4601 0.29-2.9 0.4399-4.3101-2.74-0.6-5.43-1.38-8.11-2.14 1.88-1.14 3.54-2.5699 5.15-4.0499 3.87 0.83 7.66 1.97 11.53 2.8199-2.8599-1.5699-5.7499-3.0899-8.5799-4.6999z" fill="#FDFDFD" stroke="#FDFDFD"/>
	<path d="m586.51 1773c0.87-0.8101 1.81-1.53 2.95-1.88 2.83 1.61 5.72 3.13 8.58 4.7-3.87-0.85-7.66-1.99-11.53-2.82z" fill="#3C2515" stroke="#3C2515"/>
	<path d="m843.86 1775.8c2.86-1.72 5.84-3.21 8.74-4.84 0.83 0.6801 1.69 1.37 2.54 2.09-3.8 0.77-7.51 1.9-11.28 2.75z" fill="#3C2515" stroke="#3C2515"/>
	<path d="m572.58 1782.5c2.85-1.92 5.71-3.85 8.78-5.41 2.68 0.76 5.37 1.54 8.11 2.14-0.15 1.41-0.3 2.85-0.4399 4.3101-5.4801-0.3801-10.96-0.9101-16.45-1.0401z" fill="#565656" stroke="#565656"/>
	<path d="m860.54 1777.1c2.87 1.7001 5.68 3.5 8.37 5.48-5.44 0.05-10.86 0.5901-16.27 1-0.21-1.4299-0.4-2.85-0.58-4.24 2.84-0.7 5.66-1.46 8.48-2.24z" fill="#555" stroke="#555"/>
	<path d="m679.21 1799.7c5.11 6.72 6.78 16 4.64 24.13-1.28 4.47-6.17 5.74-10.16 6.64-25.06 5.42-47.93 17.57-72.42 24.83-20.51 6.03-42.37 5.6101-63.23 1.7101-7.78-1.53-15.81-2.62-23.01-6.13-3.18-1.7001-6.61-4.12-7.23-7.92-1.18-5.5599 2.16-10.74 6.04-14.37 3.72 4.65 9.46 6.8101 14.89 8.74 8.3 2.88 16.93 5.1 25.73 5.65 6.66 0.6899 13.39 0.6801 20.05-0.01 12.26-0.79 24.11-4.42 35.59-8.58 22.32-6.29 44.33-14.24 64.58-25.66 3.3499-1.6802 4.2599-5.6201 4.5299-9.0301z" fill="#E0D4C8" stroke="#E0D4C8"/>
	<path d="m760.43 1802.1c0.74 0.21 1.49 0.45 2.25 0.7 0.78 2.3501 2 4.74 4.31 5.9401 15.82 8.9 32.75 15.74 50.02 21.28 6.76 2.23 13.71 3.83 20.37 6.3899 22.75 8.2001 48.21 9.78 71.39 2.3 6.81-2.35 14.42-4.36 19.1-10.27 3.6 4.0901 7.66 9.4501 5.75 15.24-2.36 6-9.06 8.38-14.76 10.06-19.83 4.84-40.47 7.79-60.86 5.16-14.21-1.8-27.81-6.5901-41.08-11.8-16.08-6.46-32.26-12.92-49.22-16.67-3.76-0.9299-8.65-2.0599-9.87-6.3199-2.24-7.3402-0.35-15.16 2.6-22.01z" fill="#E0D4C8" stroke="#E0D4C8"/>
	<path d="m554.46 1843c2.13-0.71 4.36-1.11 6.62-0.96 4.48 0.22 9.11-0.61 13.43 0.95-6.66 0.6901-13.39 0.6999-20.05 0.01z" fill="#424445" stroke="#424445"/>
	<path d="m699.48 1919.3c4.02-1.46 8.34-1.1 12.54-1.16 6.99-0.08 13.98-0.0499 20.97 0.03 3.53 0.04 7.22-0.34 10.55 1.14-14.68 0.25-29.38 0.24-44.06-0.01z" fill="#F6F7F8" stroke="#F6F7F8"/>
</g>
</svg>
